<?xml version="1.0" encoding="utf-8"?>
<!-- Generator: Adobe Illustrator 22.1.0, SVG Export Plug-In . SVG Version: 6.00 Build 0)  -->
<svg version="1.1" id="レイヤー_1" xmlns="http://www.w3.org/2000/svg" xmlns:xlink="http://www.w3.org/1999/xlink" x="0px"
	 y="0px" viewBox="0 0 128 128" style="enable-background:new 0 0 128 128;" xml:space="preserve">
<style type="text/css">
	.st0{fill:#333333;}
</style>
<title>Note Text</title>
<desc>A solid styled icon from Orion Icon Library.</desc>
<path class="st0" d="M92,4v12c2.2,0,4,1.8,4,4s-1.8,4-4,4h-8c-2.2,0-4-1.8-4-4s1.8-4,4-4V4H68v12c2.2,0,4,1.8,4,4s-1.8,4-4,4h-8
	c-2.2,0-4-1.8-4-4s1.8-4,4-4V4H44v12c2.2,0,4,1.8,4,4s-1.8,4-4,4h-8c-2.2,0-4-1.8-4-4s1.8-4,4-4V4H16v120h96V4H92z M76,104H36
	c-2.2,0-4-1.8-4-4s1.8-4,4-4h40c2.2,0,4,1.8,4,4S78.2,104,76,104z M92,84H36c-2.2,0-4-1.8-4-4s1.8-4,4-4h56c2.2,0,4,1.8,4,4
	S94.2,84,92,84z M92,64H36c-2.2,0-4-1.8-4-4s1.8-4,4-4h56c2.2,0,4,1.8,4,4S94.2,64,92,64z M92,44H36c-2.2,0-4-1.8-4-4s1.8-4,4-4h56
	c2.2,0,4,1.8,4,4S94.2,44,92,44z"/>
</svg>
