<?xml version="1.0" encoding="utf-8"?>
<!-- Generator: Adobe Illustrator 22.1.0, SVG Export Plug-In . SVG Version: 6.00 Build 0)  -->
<svg version="1.1" id="Capa_1" xmlns="http://www.w3.org/2000/svg" xmlns:xlink="http://www.w3.org/1999/xlink" x="0px" y="0px"
	 viewBox="0 0 303.3 303.3" style="enable-background:new 0 0 303.3 303.3;" xml:space="preserve">
<style type="text/css">
	.st0{fill:#FFFFFF;}
</style>
<g>
	<path class="st0" d="M284.7,117l-32.4-32.4c-2.9-2.9-7.7-2.9-10.6,0l-28.8,28.8c0,0,0,0,0,0s0,0,0,0l-73.9,73.9
		c-1.1,1.1-1.8,2.5-2.1,4.1l-6.4,38.8c-0.4,2.4,0.4,4.8,2.1,6.5c1.4,1.4,3.3,2.2,5.3,2.2c0.4,0,0.8,0,1.2-0.1l38.8-6.4
		c1.6-0.3,3-1,4.1-2.1l102.8-102.8c1.4-1.4,2.2-3.3,2.2-5.3S286.1,118.4,284.7,117z M173,218.1l-26.1,4.3l4.3-26.1l66.9-66.9
		l21.8,21.8L173,218.1z M250.5,140.5l-21.8-21.8l18.2-18.2l21.8,21.8L250.5,140.5z"/>
	<path class="st0" d="M248.1,192.9c-4.1,0-7.5,3.4-7.5,7.5v88H31.5V15h209.1v48.9c0,4.1,3.4,7.5,7.5,7.5s7.5-3.4,7.5-7.5V7.5
		c0-4.1-3.4-7.5-7.5-7.5H24c-4.1,0-7.5,3.4-7.5,7.5v288.3c0,4.1,3.4,7.5,7.5,7.5h224.1c4.1,0,7.5-3.4,7.5-7.5v-95.5
		C255.6,196.2,252.3,192.9,248.1,192.9z"/>
	<path class="st0" d="M114.7,42.1c-2.9-2.9-7.7-2.9-10.6,0L75.5,70.7L64.2,59.4c-2.9-2.9-7.7-2.9-10.6,0c-2.9,2.9-2.9,7.7,0,10.6
		l16.6,16.6c1.5,1.5,3.4,2.2,5.3,2.2s3.8-0.7,5.3-2.2l33.9-33.9C117.6,49.8,117.6,45,114.7,42.1z"/>
	<path class="st0" d="M114.7,130.5c-2.9-2.9-7.7-2.9-10.6,0L75.5,159l-11.3-11.3c-2.9-2.9-7.7-2.9-10.6,0c-2.9,2.9-2.9,7.7,0,10.6
		l16.6,16.6c1.5,1.5,3.4,2.2,5.3,2.2s3.8-0.7,5.3-2.2l33.9-33.9C117.6,138.1,117.6,133.4,114.7,130.5z"/>
	<path class="st0" d="M104,218.8l-28.6,28.6l-11.3-11.3c-2.9-2.9-7.7-2.9-10.6,0c-2.9,2.9-2.9,7.7,0,10.6l16.6,16.6
		c1.4,1.4,3.3,2.2,5.3,2.2s3.9-0.8,5.3-2.2l33.9-33.9c2.9-2.9,2.9-7.7,0-10.6C111.7,215.9,107,215.9,104,218.8z"/>
</g>
</svg>
