<svg xmlns="http://www.w3.org/2000/svg" viewBox="0 0 64 64" aria-labelledby="title"
aria-describedby="desc" role="img" xmlns:xlink="http://www.w3.org/1999/xlink"
width="256" height="256">
  <title>Upload To Cloud</title>
  <desc>A solid styled icon from Orion Icon Library.</desc>
  <path data-name="layer2"
  d="M41.4 35.6L32 26.2l-9.4 9.4a2 2 0 1 0 2.8 2.8l4.6-4.6V51a2 2 0 1 0 4 0V33.8l4.6 4.6a2 2 0 1 0 2.8-2.8z"
  fill="#202020"></path>
  <path data-name="layer1" d="M49 21h-.5a17 17 0 0 0-32.3 4.4A11 11 0 1 0 13 47h13v-4.3a6 6 0 0 1-6.2-9.9l9.4-9.4 2.8-2.9 2.8 2.8 9.4 9.4a6 6 0 0 1-6.2 10V47h11a13 13 0 0 0 0-26z"
  fill="#202020"></path>
</svg>