<?xml version="1.0" encoding="utf-8"?>
<!-- Generator: Adobe Illustrator 22.1.0, SVG Export Plug-In . SVG Version: 6.00 Build 0)  -->
<svg version="1.1" id="レイヤー_1" xmlns="http://www.w3.org/2000/svg" xmlns:xlink="http://www.w3.org/1999/xlink" x="0px"
	 y="0px" viewBox="0 0 205 37" style="enable-background:new 0 0 205 37;" xml:space="preserve">
<style type="text/css">
	.st0{fill:url(#SVGID_1_);}
	.st1{fill:url(#SVGID_2_);}
	.st2{fill:url(#SVGID_3_);}
	.st3{fill:url(#SVGID_4_);}
	.st4{fill:#191919;}
</style>
<g>
	<g>
		
			<linearGradient id="SVGID_1_" gradientUnits="userSpaceOnUse" x1="148.4043" y1="-3.9266" x2="165.3235" y2="-3.9266" gradientTransform="matrix(0.7071 0.7071 -0.7071 0.7071 -95.225 -98.5466)">
			<stop  offset="0" style="stop-color:#84FAB0"/>
			<stop  offset="1" style="stop-color:#8FD3F4"/>
		</linearGradient>
		<path class="st0" d="M15.9,16.3c-1.2,0.1-2.3,0.1-3.2-0.1c-1-0.2-1.9-0.8-2.8-1.7c-0.6-0.6-1-1.2-1.3-1.8c-0.3-0.7-0.5-1.4-0.6-2
			C7.9,10,8,9.3,8.2,8.6c0.2-0.7,0.6-1.3,1.2-1.9c0.5-0.5,1-0.8,1.5-1c0.5-0.2,1.1-0.4,1.7-0.4c0.6,0,1.2,0,1.8,0.1
			c0.6,0.1,1.2,0.3,1.8,0.5c0-0.9,0.1-1.7,0.3-2.5c0.2-0.8,0.6-1.5,1.2-2.1c0.5-0.5,1-0.8,1.6-1C19.7,0,20.3-0.1,20.8,0
			c0.6,0.1,1.1,0.2,1.6,0.5c0.5,0.3,1,0.6,1.5,1.1C24.4,2,24.8,2.5,25,3c0.3,0.5,0.4,1,0.5,1.6c0.1,0.5,0,1.1-0.2,1.6
			c-0.2,0.5-0.5,1-1,1.5c-0.4,0.4-0.9,0.7-1.4,0.9c-0.5,0.2-1,0.3-1.6,0.3c-0.5,0-1.1-0.1-1.6-0.2c-0.5-0.1-1.1-0.2-1.6-0.4L18.1,14
			l4.7-1.2l1.8,1.8L18,16.1l-0.1,6.1L15.8,20L15.9,16.3z M16.2,7.7c-0.4-0.1-0.9-0.2-1.3-0.3c-0.4-0.1-0.9-0.1-1.3-0.1
			c-0.4,0-0.9,0.1-1.3,0.2c-0.4,0.1-0.8,0.4-1.1,0.7c-0.4,0.4-0.6,0.8-0.8,1.2c-0.2,0.4-0.2,0.9-0.2,1.3c0,0.5,0.1,0.9,0.3,1.3
			c0.2,0.4,0.4,0.8,0.8,1.2c0.3,0.3,0.7,0.6,1.1,0.8c0.4,0.2,0.8,0.3,1.2,0.4s0.8,0.1,1.3,0.1c0.4,0,0.9,0,1.3-0.1L16.2,7.7z
			 M18.2,6.4c0.4,0.1,0.8,0.2,1.2,0.3c0.4,0.1,0.8,0.2,1.2,0.2c0.4,0,0.8,0,1.2-0.1c0.4-0.1,0.7-0.3,1.1-0.6c0.5-0.5,0.7-1,0.6-1.6
			c-0.1-0.6-0.3-1.1-0.8-1.6c-0.5-0.5-1.1-0.8-1.8-0.9c-0.7-0.1-1.3,0.2-1.8,0.7c-0.4,0.4-0.6,0.8-0.7,1.2c-0.1,0.5-0.1,0.9-0.1,1.4
			L18.2,6.4z"/>
	</g>
	<g>
		
			<linearGradient id="SVGID_2_" gradientUnits="userSpaceOnUse" x1="-28.6959" y1="-40.8796" x2="-11.7767" y2="-40.8796" gradientTransform="matrix(0.7071 -0.7071 0.7071 0.7071 59.8714 40.1025)">
			<stop  offset="0" style="stop-color:#84FAB0"/>
			<stop  offset="1" style="stop-color:#8FD3F4"/>
		</linearGradient>
		<path class="st1" d="M23.4,28.1c0.1,1.2,0.1,2.3-0.1,3.2c-0.2,1-0.8,1.9-1.7,2.8c-0.6,0.6-1.2,1-1.8,1.3c-0.7,0.3-1.4,0.5-2,0.6
			c-0.7,0.1-1.4,0-2.1-0.3c-0.7-0.2-1.3-0.6-1.9-1.2c-0.5-0.5-0.8-1-1-1.5c-0.2-0.5-0.4-1.1-0.4-1.7c0-0.6,0-1.2,0.1-1.8
			c0.1-0.6,0.3-1.2,0.5-1.8c-0.9,0-1.7-0.1-2.5-0.3c-0.8-0.2-1.5-0.6-2.1-1.2c-0.5-0.5-0.8-1-1-1.6C7,24.3,7,23.7,7,23.1
			c0.1-0.6,0.2-1.1,0.5-1.6c0.3-0.5,0.6-1,1.1-1.5c0.4-0.4,0.9-0.8,1.4-1.1c0.5-0.3,1-0.4,1.6-0.5c0.5-0.1,1.1,0,1.6,0.2
			c0.5,0.2,1,0.5,1.5,1c0.4,0.4,0.7,0.9,0.9,1.4c0.2,0.5,0.3,1,0.3,1.6c0,0.5-0.1,1.1-0.2,1.6c-0.1,0.5-0.2,1.1-0.4,1.6l5.7,0.2
			l-1.2-4.7l1.8-1.8l1.5,6.5l6.1,0.1l-2.1,2.1L23.4,28.1z M14.7,27.8c-0.1,0.4-0.2,0.9-0.3,1.3c-0.1,0.4-0.1,0.9-0.1,1.3
			c0,0.4,0.1,0.9,0.2,1.3c0.1,0.4,0.4,0.8,0.7,1.1c0.4,0.4,0.8,0.6,1.2,0.8c0.4,0.2,0.9,0.2,1.3,0.2c0.5,0,0.9-0.1,1.3-0.3
			c0.4-0.2,0.8-0.4,1.2-0.8c0.3-0.3,0.6-0.7,0.8-1.1c0.2-0.4,0.3-0.8,0.4-1.2c0.1-0.4,0.1-0.8,0.1-1.3c0-0.4,0-0.9-0.1-1.3
			L14.7,27.8z M13.4,25.8c0.1-0.4,0.2-0.8,0.3-1.2c0.1-0.4,0.2-0.8,0.2-1.2c0-0.4,0-0.8-0.1-1.2c-0.1-0.4-0.3-0.7-0.6-1.1
			c-0.5-0.5-1-0.7-1.6-0.6c-0.6,0.1-1.1,0.3-1.6,0.8c-0.5,0.5-0.8,1.1-0.9,1.8c-0.1,0.7,0.2,1.3,0.7,1.8c0.4,0.4,0.8,0.6,1.2,0.7
			c0.5,0.1,0.9,0.1,1.4,0.1L13.4,25.8z"/>
	</g>
	<g>
		
			<linearGradient id="SVGID_3_" gradientUnits="userSpaceOnUse" x1="304.7444" y1="-99.4209" x2="321.6637" y2="-99.4209" gradientTransform="matrix(-0.7071 0.7071 -0.7071 -0.7071 188.4937 -280.5166)">
			<stop  offset="0" style="stop-color:#84FAB0"/>
			<stop  offset="1" style="stop-color:#8FD3F4"/>
		</linearGradient>
		<path class="st2" d="M30.6,8.7c-0.1-1.2-0.1-2.3,0.1-3.2c0.2-1,0.8-1.9,1.7-2.8c0.6-0.6,1.2-1,1.8-1.3c0.7-0.3,1.4-0.5,2-0.6
			c0.7-0.1,1.4,0,2.1,0.3c0.7,0.2,1.3,0.6,1.9,1.2c0.5,0.5,0.8,1,1,1.5c0.2,0.5,0.4,1.1,0.4,1.7c0,0.6,0,1.2-0.1,1.8
			c-0.1,0.6-0.3,1.2-0.5,1.8c0.9,0,1.7,0.1,2.5,0.3c0.8,0.2,1.5,0.6,2.1,1.2c0.5,0.5,0.8,1,1,1.6c0.2,0.6,0.3,1.1,0.2,1.7
			c-0.1,0.6-0.2,1.1-0.5,1.6c-0.3,0.5-0.6,1-1.1,1.5c-0.4,0.4-0.9,0.8-1.4,1.1c-0.5,0.3-1,0.4-1.6,0.5c-0.5,0.1-1.1,0-1.6-0.2
			c-0.5-0.2-1-0.5-1.5-1c-0.4-0.4-0.7-0.9-0.9-1.4c-0.2-0.5-0.3-1-0.3-1.6c0-0.5,0.1-1.1,0.2-1.6c0.1-0.5,0.2-1.1,0.4-1.6l-5.7-0.2
			l1.2,4.7l-1.8,1.8l-1.5-6.5l-6.1-0.1l2.1-2.1L30.6,8.7z M39.3,8.9c0.1-0.4,0.2-0.9,0.3-1.3c0.1-0.4,0.1-0.9,0.1-1.3
			c0-0.4-0.1-0.9-0.2-1.3c-0.1-0.4-0.4-0.8-0.7-1.1c-0.4-0.4-0.8-0.6-1.2-0.8c-0.4-0.2-0.9-0.2-1.3-0.2c-0.5,0-0.9,0.1-1.3,0.3
			c-0.4,0.2-0.8,0.4-1.2,0.8C33.4,4.3,33.2,4.6,33,5c-0.2,0.4-0.3,0.8-0.4,1.2S32.5,7,32.5,7.4c0,0.4,0,0.9,0.1,1.3L39.3,8.9z
			 M40.5,11c-0.1,0.4-0.2,0.8-0.3,1.2C40.1,12.6,40,13,40,13.4c0,0.4,0,0.8,0.1,1.2c0.1,0.4,0.3,0.7,0.6,1.1c0.5,0.5,1,0.7,1.6,0.6
			c0.6-0.1,1.1-0.3,1.6-0.8c0.5-0.5,0.8-1.1,0.9-1.8s-0.2-1.3-0.7-1.8c-0.4-0.4-0.8-0.6-1.2-0.7c-0.5-0.1-0.9-0.1-1.4-0.1L40.5,11z"
			/>
	</g>
	<g>
		
			<linearGradient id="SVGID_4_" gradientUnits="userSpaceOnUse" x1="184.5076" y1="-236.6786" x2="201.4268" y2="-236.6786" gradientTransform="matrix(-0.7071 -0.7071 0.7071 -0.7071 340.1551 -3.5431)">
			<stop  offset="0" style="stop-color:#84FAB0"/>
			<stop  offset="1" style="stop-color:#8FD3F4"/>
		</linearGradient>
		<path class="st3" d="M38.9,20.6c1.2-0.1,2.3-0.1,3.2,0.1c1,0.2,1.9,0.8,2.8,1.7c0.6,0.6,1,1.2,1.3,1.8c0.3,0.7,0.5,1.4,0.6,2
			c0.1,0.7,0,1.4-0.3,2.1c-0.2,0.7-0.6,1.3-1.2,1.9c-0.5,0.5-1,0.8-1.5,1c-0.5,0.2-1.1,0.4-1.7,0.4c-0.6,0-1.2,0-1.8-0.1
			s-1.2-0.3-1.8-0.5c0,0.9-0.1,1.7-0.3,2.5c-0.2,0.8-0.6,1.5-1.2,2.1c-0.5,0.5-1,0.8-1.6,1C35.1,37,34.5,37.1,34,37
			c-0.6-0.1-1.1-0.2-1.6-0.5c-0.5-0.3-1-0.6-1.5-1.1c-0.4-0.4-0.8-0.9-1.1-1.4c-0.3-0.5-0.4-1-0.5-1.6c-0.1-0.5,0-1.1,0.2-1.6
			c0.2-0.5,0.5-1,1-1.5c0.4-0.4,0.9-0.7,1.4-0.9c0.5-0.2,1-0.3,1.6-0.3c0.5,0,1.1,0.1,1.6,0.2c0.5,0.1,1.1,0.2,1.6,0.4l0.2-5.7
			l-4.7,1.2l-1.8-1.8l6.5-1.5l0.1-6.1L39,17L38.9,20.6z M38.7,29.3c0.4,0.1,0.9,0.2,1.3,0.3c0.4,0.1,0.9,0.1,1.3,0.1
			c0.4,0,0.9-0.1,1.3-0.2c0.4-0.1,0.8-0.4,1.1-0.7c0.4-0.4,0.6-0.8,0.8-1.2c0.2-0.4,0.2-0.9,0.2-1.3c0-0.5-0.1-0.9-0.3-1.3
			c-0.2-0.4-0.4-0.8-0.8-1.2c-0.3-0.3-0.7-0.6-1.1-0.8c-0.4-0.2-0.8-0.3-1.2-0.4s-0.8-0.1-1.3-0.1c-0.4,0-0.9,0-1.3,0.1L38.7,29.3z
			 M36.6,30.6c-0.4-0.1-0.8-0.2-1.2-0.3c-0.4-0.1-0.8-0.2-1.2-0.2c-0.4,0-0.8,0-1.2,0.1c-0.4,0.1-0.7,0.3-1.1,0.6
			c-0.5,0.5-0.7,1-0.6,1.6c0.1,0.6,0.3,1.1,0.8,1.6c0.5,0.5,1.1,0.8,1.8,0.9c0.7,0.1,1.3-0.2,1.8-0.7c0.4-0.4,0.6-0.8,0.7-1.2
			c0.1-0.5,0.1-0.9,0.1-1.4L36.6,30.6z"/>
	</g>
</g>
<g>
	<path class="st4" d="M72,22.2h-6v12.1h-6.5V2.6h14c3.6,0,6.4,0.9,8.5,2.6s3,4.1,3,7.2c0,2.3-0.6,4.2-1.7,5.7
		c-1.1,1.5-2.7,2.6-4.8,3.3l8.4,12.9h-7.4L72,22.2z M66,17.1h6.6c1.9,0,3.3-0.4,4.2-1.1c0.9-0.8,1.4-1.9,1.4-3.5
		c0-1.6-0.5-2.7-1.4-3.5c-0.9-0.8-2.3-1.1-4.2-1.1H66V17.1z"/>
	<path class="st4" d="M108.4,34.3h-6.6V2.6h6.6V34.3z"/>
	<path class="st4" d="M148,4.1c2.3,1.3,4,3.2,5.3,5.6c1.2,2.4,1.8,5.4,1.8,8.7c0,3.4-0.6,6.3-1.8,8.7c-1.2,2.4-3,4.3-5.3,5.6
		c-2.3,1.3-5,2-8.1,2c-3.1,0-5.8-0.7-8.1-2c-2.3-1.3-4.1-3.2-5.3-5.6c-1.2-2.4-1.8-5.4-1.8-8.7c0-3.4,0.6-6.3,1.8-8.7
		c1.2-2.4,3-4.3,5.3-5.6c2.3-1.3,5-2,8.1-2C143,2.2,145.7,2.8,148,4.1z M133.7,10.4c-1.5,1.9-2.2,4.6-2.2,8.1c0,3.5,0.7,6.2,2.2,8.1
		s3.5,2.8,6.2,2.8c2.7,0,4.7-0.9,6.2-2.8s2.2-4.6,2.2-8.1c0-3.5-0.7-6.2-2.2-8.1c-1.5-1.9-3.5-2.8-6.2-2.8
		C137.2,7.6,135.2,8.5,133.7,10.4z"/>
	<path class="st4" d="M196.5,8h-10.6v26.4h-6.6V8h-10.7V2.6h27.9V8z"/>
</g>
</svg>
