<svg xmlns="http://www.w3.org/2000/svg" viewBox="0 0 64 64" aria-labelledby="title"
aria-describedby="desc" role="img" xmlns:xlink="http://www.w3.org/1999/xlink"
width="128" height="128">
  <title>Open In Window</title>
  <desc>A color styled icon from Orion Icon Library.</desc>
  <path data-name="layer2"
  d="M24 37l22-15h16v38H14V29.014A34.125 34.125 0 0 1 24 28z" fill="#f3f8ff"></path>
  <path data-name="layer1" d="M2 40c0-7.416 0-24 22-24V7l22 15-22 15v-9a34.125 34.125 0 0 0-10 1.014C9.743 30.311 5.82 33.264 2 40z"
  fill="#5ade9c"></path>
  <path data-name="opacity" opacity=".15" d="M28 41v-6.727l17.066-11.637L50 26 28 41zm-4-13v4.076a24.626 24.626 0 0 0-6 .938 16.25 16.25 0 0 0-4 1.832v-5.832A34.125 34.125 0 0 1 24 28z"></path>
  <path data-name="stroke" d="M24 16V7l22 15-22 15v-9c-8.447.002-15.379.324-22 12 0-7.416 0-24 22-24z"
  fill="none" stroke="#2e4369" stroke-linecap="round" stroke-linejoin="round"
  stroke-width="2"></path>
  <path data-name="stroke" fill="none" stroke="#2e4369" stroke-linecap="round"
  stroke-linejoin="round" stroke-width="2" d="M46 22h16v38H14V29"></path>
</svg>