<?xml version="1.0" encoding="utf-8"?>
<!-- Generator: Adobe Illustrator 22.1.0, SVG Export Plug-In . SVG Version: 6.00 Build 0)  -->
<svg version="1.1" id="レイヤー_1" xmlns="http://www.w3.org/2000/svg" xmlns:xlink="http://www.w3.org/1999/xlink" x="0px"
	 y="0px" viewBox="0 0 169 102" style="enable-background:new 0 0 169 102;" xml:space="preserve">
<style type="text/css">
	.st0{fill:#F0F1F4;stroke:#6822FF;stroke-width:5;stroke-miterlimit:10;}
	.st1{fill:#F0F1F4;stroke:#230071;stroke-width:5;stroke-miterlimit:10;}
</style>
<g>
	<path class="st0" d="M116.6,34.6l-29.3,0.2c0-0.8,0-1.1,0-1.1c-0.1-6.9-5.6-12.7-12.5-12.6c-2.2,0-4.3,0.6-6.1,1.6
		c-2.3-3.1-6-5.1-10.1-5.1c-2,0-3.8,0.5-5.4,1.3C50.8,10.3,42.9,3.9,33.6,4c-11.1,0.1-20.1,9.9-20,21c0,3.5,1,7.1,2.6,10.4h-5.8
		c-4.3,0-7.7,3.3-7.7,7.4s3.5,7.3,7.8,7.3l106.2-0.8c4.3,0,7.7-3.3,7.7-7.4C124.4,37.8,120.9,34.6,116.6,34.6z"/>
	<path class="st1" d="M130.6,77.7c-26.5,0-48-21.5-48-48c0-9.9,3-19.1,8.2-26.8c-25.7,0.9-46.2,22-46.2,47.9c0,26.5,21.5,48,48,48
		c16.6,0,31.1-8.4,39.8-21.1C131.8,77.6,131.2,77.7,130.6,77.7z"/>
	<path class="st0" d="M52.2,57.5h27.3c0-2,0-4.8,0-4.9c0-6.9,6.5-12.7,13.4-12.7c2.2,0,4.8,0.5,6.6,1.6c2.3-3.1,6.2-5.1,10.3-5.1
		c2,0,3.9,0.4,5.6,1.2c2.3-8.7,10.2-15,19.5-15c11.1,0,20.2,11.6,20.2,22.7c0,3.5-0.9,9.3-2.5,12.3h5.8c4.3,0,7.7,3.4,7.7,7.5
		s-3.5,7.5-7.7,7.5H52.2c-4.3,0-7.7-3.4-7.7-7.5S48,57.5,52.2,57.5z"/>
</g>
</svg>
