<?xml version="1.0" encoding="utf-8"?>
<!-- Generator: Adobe Illustrator 22.1.0, SVG Export Plug-In . SVG Version: 6.00 Build 0)  -->
<svg version="1.1" id="レイヤー_1" xmlns="http://www.w3.org/2000/svg" xmlns:xlink="http://www.w3.org/1999/xlink" x="0px"
	 y="0px" viewBox="0 0 256 256" style="enable-background:new 0 0 256 256;" xml:space="preserve">
<style type="text/css">
	.st0{fill:#905DFF;}
</style>
<title>Add</title>
<desc>A solid styled icon from Orion Icon Library.</desc>
<path class="st0" d="M212,116h-72V44c0-6.6-5.4-12-12-12c-6.6,0-12,5.4-12,12v72H44c-6.6,0-12,5.4-12,12c0,6.6,5.4,12,12,12h72v72
	c0,6.6,5.4,12,12,12c6.6,0,12-5.4,12-12v-72h72c6.6,0,12-5.4,12-12C224,121.4,218.6,116,212,116z"/>
</svg>
