<?xml version="1.0" encoding="utf-8"?>
<!-- Generator: Adobe Illustrator 22.1.0, SVG Export Plug-In . SVG Version: 6.00 Build 0)  -->
<svg version="1.1" id="レイヤー_1" xmlns="http://www.w3.org/2000/svg" xmlns:xlink="http://www.w3.org/1999/xlink" x="0px"
	 y="0px" viewBox="0 0 182 113" style="enable-background:new 0 0 182 113;" xml:space="preserve">
<style type="text/css">
	.st0{fill:none;stroke:#6822FF;stroke-width:5;stroke-miterlimit:10;}
	.st1{fill:none;stroke:#230071;stroke-width:5;stroke-linecap:round;stroke-linejoin:round;stroke-miterlimit:10;}
</style>
<g>
	<path class="st0" d="M167.7,50.5h-27.6c0.4-1,0.7-5.5,0.7-7.2c0-10.1-8.2-19.4-18.2-19.4c-2.9,0-5.7,0.1-8.2,1.4
		C111.2,12.6,99.7,3,86.1,3C71.2,3,59,14,57.1,28.3c-3.3-3.4-7.9-5.5-13-5.5c-10.1,0-18.2,10.4-18.2,20.5c0,1.7,0.2,6.2,0.7,7.2
		H13.7c-6.2,0-11.2,6.1-11.2,12s5,12,11.2,12h154c6.2,0,11.2-6.1,11.2-12S173.9,50.5,167.7,50.5z"/>
	<g>
		<path class="st1" d="M20.5,80.6c-5.3,9.8-10.3,19.8-15.3,29.8"/>
		<path class="st1" d="M30.6,80.5c-6.3,8.8-10.4,20.2-15.6,29.9"/>
		<path class="st1" d="M40.7,80.6c-5.1,9.8-10.1,19.8-15,29.7"/>
		<path class="st1" d="M50.7,80.7c-5,9.9-10.1,19.8-15.1,29.7"/>
		<path class="st1" d="M60.9,80.4c-4.9,10-10,20.1-15,30"/>
		<path class="st1" d="M71,80.4c-5,9.8-9.5,20-14.7,29.7"/>
		<path class="st1" d="M81,80.4c-5.4,9.8-10.6,19.7-15.6,29.6"/>
		<path class="st1" d="M91.1,80.4c-4.7,10.1-9.8,20-15.1,29.9"/>
		<path class="st1" d="M101.2,80.4c-5.1,10-10.1,19.9-15.2,29.9"/>
		<path class="st1" d="M111.2,80.5c-5.2,9.8-10.2,19.7-15.2,29.6"/>
		<path class="st1" d="M121.3,80.5c-5.2,9.8-10.3,19.7-15.4,29.6"/>
		<path class="st1" d="M131.3,80.5c-4.9,10-10,19.9-15.1,29.8"/>
		<path class="st1" d="M141.4,80.7c-5,9.8-10,19.6-15,29.5"/>
		<path class="st1" d="M151.5,80.6c-4.6,10.1-10,19.9-14.9,29.9"/>
		<path class="st1" d="M161.6,80.5c-4.4,10.2-9.4,20.2-14.7,29.9"/>
	</g>
</g>
</svg>
