<?xml version="1.0" encoding="utf-8"?>
<!-- Generator: Adobe Illustrator 22.1.0, SVG Export Plug-In . SVG Version: 6.00 Build 0)  -->
<svg version="1.1" id="レイヤー_1" xmlns="http://www.w3.org/2000/svg" xmlns:xlink="http://www.w3.org/1999/xlink" x="0px"
	 y="0px" viewBox="0 0 792 633" style="enable-background:new 0 0 792 633;" xml:space="preserve">
<style type="text/css">
	.st0{fill:#C2D4EA;}
	.st1{fill:#2C4482;}
	.st2{fill:#486ED1;}
	.st3{fill:#3B65C4;}
	.st4{fill:#E2EAF5;}
	.st5{fill:#97CAFF;}
	.st6{fill:#8DB0DA;}
	.st7{fill:#DDE6F5;}
	.st8{fill:#FFFFFF;}
	.st9{clip-path:url(#SVGID_1_);}
	.st10{fill:#492817;}
	.st11{fill:#FFAA81;}
	.st12{fill:#F4946E;}
	.st13{fill:#FFD22E;}
	.st14{fill:#F4C42A;}
	.st15{fill:#F55D34;}
	.st16{fill:#092140;}
	.st17{fill:#EF487C;}
	.st18{fill:#52517B;}
	.st19{fill:#45446C;}
	.st20{fill:#2C2B57;}
	.st21{fill:#F2F2F2;}
	.st22{fill:#292951;}
	.st23{fill:#76A2CE;}
	.st24{opacity:0.5;fill:#60C0FD;}
	.st25{fill:#7374A4;}
</style>
<path class="st0" d="M113.8,511.1V138.1c0-3.6,2.9-6.5,6.5-6.5h551.8c3.6,0,6.5,2.9,6.5,6.5v373.1c0,3.6-2.9,6.5-6.5,6.5H120.4
	C116.8,517.7,113.8,514.8,113.8,511.1z"/>
<path class="st1" d="M673.2,472.7H119.3c-3,0-5.5-2.5-5.5-5.5V137c0-3,2.5-5.5,5.5-5.5h553.9c3,0,5.5,2.5,5.5,5.5v330.2
	C678.7,470.2,676.3,472.7,673.2,472.7z"/>
<path class="st2" d="M644.2,446.5H146.8c-7.3,0-13.3-6-13.3-13.3l0.7-266c0-7.3,5.9-13.2,13.3-13.2h497.4c7.3,0,13.3,6,13.3,13.3
	l-0.7,266C657.4,440.6,651.5,446.5,644.2,446.5z"/>
<path class="st3" d="M608.1,258.7c-43.5,63.3-97.5,119.4-159.3,165c-10.7,7.9-21.6,15.5-32.8,22.7h228.1c7.3,0,13.2-5.9,13.3-13.2
	l0.7-259.8C643.5,203.1,626.8,231.6,608.1,258.7z"/>
<path class="st1" d="M792.5,621.6h-44.3H23.4H0.1c0,0,0,0,0,0v7.4c0,4.1,3.5,3.8,3.5,3.8h19.9h724.8H789c0,0,3.5,0.3,3.5-3.8
	L792.5,621.6C792.5,621.6,792.5,621.6,792.5,621.6z"/>
<path class="st4" d="M790.6,623.8H2c-1.7,0-2.6-2.1-1.3-3.3l113-102.2c0.3-0.3,0.8-0.5,1.3-0.5h562.6c0.5,0,0.9,0.2,1.3,0.5
	l113,102.2C793.2,621.7,792.3,623.8,790.6,623.8z"/>
<path class="st0" d="M508.2,612.3H284.5c-2.9,0-4.1-2.3-2.6-5l11.1-20.5c1.2-2.2,4.2-3.9,6.7-3.9H493c2.5,0,5.5,1.7,6.7,3.9
	l11.1,20.5C512.2,610.1,511.1,612.3,508.2,612.3z"/>
<g>
	<g>
		<g>
			<path class="st0" d="M167.3,528h-22c-3.1,0-4.9-0.6-4.2-1.3l2.2-2.1c0.7-0.7,3.8-1.2,6.8-1.2h21.6c3,0,4.9,0.6,4.3,1.2l-1.9,2.1
				C173.4,527.4,170.4,528,167.3,528z"/>
		</g>
		<g>
			<path class="st0" d="M204.4,528h-22c-3.1,0-5-0.6-4.4-1.3l1.9-2.1c0.6-0.7,3.6-1.2,6.6-1.2h21.6c3,0,5,0.6,4.5,1.2l-1.6,2.1
				C210.4,527.4,207.5,528,204.4,528z"/>
		</g>
		<g>
			<path class="st0" d="M241.5,528h-22c-3.1,0-5.1-0.6-4.6-1.3l1.6-2.1c0.5-0.7,3.4-1.2,6.4-1.2h21.6c3,0,5.1,0.6,4.7,1.2l-1.3,2.1
				C247.4,527.4,244.6,528,241.5,528z"/>
		</g>
		<g>
			<path class="st0" d="M278.6,528h-22c-3.1,0-5.2-0.6-4.8-1.3l1.3-2.1c0.4-0.7,3.2-1.2,6.2-1.2h21.6c3,0,5.2,0.6,4.9,1.2l-1,2.1
				C284.4,527.4,281.7,528,278.6,528z"/>
		</g>
		<g>
			<path class="st0" d="M315.7,528h-22c-3.1,0-5.3-0.6-5-1.3l0.9-2.1c0.3-0.7,3-1.2,6-1.2h21.6c3,0,5.3,0.6,5.1,1.2l-0.7,2.1
				C321.4,527.4,318.8,528,315.7,528z"/>
		</g>
		<g>
			<path class="st0" d="M352.8,528h-22c-3.1,0-5.4-0.6-5.2-1.3l0.6-2.1c0.2-0.7,2.8-1.2,5.8-1.2h21.6c3,0,5.4,0.6,5.2,1.2l-0.3,2.1
				C358.5,527.4,355.9,528,352.8,528z"/>
		</g>
		<g>
			<path class="st0" d="M389.9,528h-22c-3.1,0-5.5-0.6-5.4-1.3l0.3-2.1c0.1-0.7,2.6-1.2,5.6-1.2H390c3,0,5.4,0.6,5.4,1.2l0,2.1
				C395.5,527.4,393,528,389.9,528z"/>
		</g>
		<g>
			<path class="st0" d="M427,528h-22c-3.1,0-5.6-0.6-5.6-1.3l0-2.1c0-0.7,2.4-1.2,5.4-1.2h21.6c3,0,5.5,0.6,5.6,1.2l0.3,2.1
				C432.5,527.4,430.1,528,427,528z"/>
		</g>
		<g>
			<path class="st0" d="M464.1,528h-22c-3.1,0-5.7-0.6-5.8-1.3l-0.3-2.1c-0.1-0.7,2.2-1.2,5.2-1.2h21.6c3,0,5.6,0.6,5.8,1.2l0.6,2.1
				C469.5,527.4,467.2,528,464.1,528z"/>
		</g>
		<g>
			<path class="st0" d="M501.2,528h-22c-3.1,0-5.7-0.6-6-1.3l-0.7-2.1c-0.2-0.7,2-1.2,5-1.2h21.6c3,0,5.7,0.6,6,1.2l1,2.1
				C506.5,527.4,504.3,528,501.2,528z"/>
		</g>
		<g>
			<path class="st0" d="M538.3,528h-22c-3.1,0-5.8-0.6-6.2-1.3l-1-2.1c-0.3-0.7,1.8-1.2,4.9-1.2h21.6c3,0,5.8,0.6,6.2,1.2l1.3,2.1
				C543.5,527.4,541.4,528,538.3,528z"/>
		</g>
		<g>
			<path class="st0" d="M575.4,528h-22c-3.1,0-5.9-0.6-6.4-1.3l-1.3-2.1c-0.4-0.7,1.7-1.2,4.7-1.2H572c3,0,5.9,0.6,6.4,1.2l1.6,2.1
				C580.5,527.4,578.5,528,575.4,528z"/>
		</g>
		<g>
			<path class="st0" d="M612.5,528h-22c-3.1,0-6-0.6-6.6-1.3l-1.6-2.1c-0.5-0.7,1.5-1.2,4.5-1.2h21.6c3,0,6,0.6,6.6,1.2l1.9,2.1
				C617.5,527.4,615.6,528,612.5,528z"/>
		</g>
		<g>
			<path class="st0" d="M649.6,528h-22c-3.1,0-6.1-0.6-6.8-1.3l-2-2.1c-0.7-0.7,1.3-1.2,4.3-1.2h21.6c3,0,6,0.6,6.8,1.2l2.2,2.1
				C654.5,527.4,652.7,528,649.6,528z"/>
		</g>
		<g>
			<path class="st0" d="M162.2,535.9h-28.4c-0.7,0-1.1-0.1-1-0.3l7.1-6.5c0.2-0.2,0.9-0.3,1.6-0.3H169c0.7,0,1.1,0.1,1,0.3l-6.3,6.5
				C163.6,535.7,162.9,535.9,162.2,535.9z"/>
		</g>
		<g>
			<path class="st0" d="M212,544.7h-29.5c-0.7,0-1.2-0.1-1.1-0.3l6-7c0.1-0.2,0.8-0.3,1.6-0.3h28.6c0.7,0,1.2,0.1,1.1,0.3l-5.1,7
				C213.4,544.5,212.7,544.7,212,544.7z"/>
		</g>
		<g>
			<path class="st0" d="M214,554.2h-30.6c-0.8,0-1.3-0.2-1.1-0.4l6.2-7.5c0.1-0.2,0.9-0.3,1.6-0.3h29.6c0.7,0,1.2,0.1,1.1,0.3
				l-5.2,7.5C215.5,554,214.7,554.2,214,554.2z"/>
		</g>
		<g>
			<path class="st0" d="M228.4,564.4h-31.8c-0.8,0-1.3-0.2-1.2-0.4l6-8.1c0.1-0.2,0.9-0.4,1.6-0.4h30.7c0.8,0,1.3,0.2,1.2,0.4
				l-5,8.1C229.9,564.2,229.2,564.4,228.4,564.4z"/>
		</g>
		<g>
			<path class="st0" d="M122.8,576.7h-33c-0.9,0-1.4-0.2-1.1-0.4l10.8-10c0.2-0.2,1.1-0.4,2-0.4h31.8c0.8,0,1.4,0.2,1.1,0.4l-9.6,10
				C124.6,576.5,123.7,576.7,122.8,576.7z"/>
		</g>
		<g>
			<path class="st0" d="M166.9,576.7h-33c-0.9,0-1.4-0.2-1.2-0.4l9.3-10c0.2-0.2,1.1-0.4,1.9-0.4h31.8c0.8,0,1.4,0.2,1.2,0.4l-8,10
				C168.7,576.5,167.8,576.7,166.9,576.7z"/>
		</g>
		<g>
			<path class="st0" d="M209.7,576.7h-33c-0.9,0-1.4-0.2-1.2-0.4l7.8-10c0.2-0.2,1-0.4,1.8-0.4h31.8c0.8,0,1.4,0.2,1.3,0.4l-6.5,10
				C211.4,576.5,210.6,576.7,209.7,576.7z"/>
		</g>
		<g>
			<path class="st0" d="M263.6,576.7H220c-1,0-1.7-0.2-1.5-0.5l6.2-9.9c0.2-0.3,1.1-0.5,2-0.5h41.9c1,0,1.7,0.2,1.5,0.5l-4.6,9.9
				C265.5,576.5,264.6,576.7,263.6,576.7z"/>
		</g>
		<g>
			<path class="st0" d="M531.6,576.7h-43.6c-1,0-1.9-0.2-2-0.5l-3.1-9.9c-0.1-0.3,0.6-0.5,1.6-0.5h41.9c1,0,1.8,0.2,2,0.5l4.7,9.9
				C533.4,576.5,532.6,576.7,531.6,576.7z"/>
		</g>
		<g>
			<path class="st0" d="M575.8,576.7h-32.6c-0.9,0-1.7-0.2-1.8-0.4l-5.1-10c-0.1-0.2,0.5-0.4,1.3-0.4h31.3c0.8,0,1.6,0.2,1.8,0.4
				l6.3,10C577.2,576.5,576.6,576.7,575.8,576.7z"/>
		</g>
		<g>
			<path class="st0" d="M477.2,576.7h-201c-2.1,0-3.6-0.5-3.4-1.1l3.9-8.8c0.2-0.5,2.1-1,4.1-1h193.4c2,0,3.8,0.4,4,1l2.6,8.8
				C480.9,576.2,479.3,576.7,477.2,576.7z"/>
		</g>
		<g>
			<path class="st0" d="M269.7,564.4h-31.8c-0.8,0-1.3-0.2-1.2-0.4l4.8-8.1c0.1-0.2,0.8-0.4,1.6-0.4h30.7c0.8,0,1.3,0.2,1.2,0.4
				l-3.8,8.1C271.2,564.2,270.5,564.4,269.7,564.4z"/>
		</g>
		<g>
			<path class="st0" d="M310.9,564.4h-31.8c-0.8,0-1.4-0.2-1.3-0.4l3.6-8.1c0.1-0.2,0.8-0.4,1.5-0.4h30.7c0.8,0,1.3,0.2,1.3,0.4
				l-2.5,8.1C312.4,564.2,311.7,564.4,310.9,564.4z"/>
		</g>
		<g>
			<path class="st0" d="M352.2,564.4h-31.8c-0.8,0-1.4-0.2-1.3-0.4l2.3-8.1c0.1-0.2,0.7-0.4,1.5-0.4h30.7c0.8,0,1.4,0.2,1.3,0.4
				l-1.3,8.1C353.6,564.2,353,564.4,352.2,564.4z"/>
		</g>
		<g>
			<path class="st0" d="M393.4,564.4h-31.8c-0.8,0-1.4-0.2-1.4-0.4l1.1-8.1c0-0.2,0.7-0.4,1.4-0.4h30.7c0.8,0,1.4,0.2,1.4,0.4
				l-0.1,8.1C394.9,564.2,394.2,564.4,393.4,564.4z"/>
		</g>
		<g>
			<path class="st0" d="M434.7,564.4h-31.8c-0.8,0-1.4-0.2-1.4-0.4l-0.1-8.1c0-0.2,0.6-0.4,1.4-0.4h30.7c0.8,0,1.4,0.2,1.4,0.4
				l1.2,8.1C436.1,564.2,435.5,564.4,434.7,564.4z"/>
		</g>
		<g>
			<path class="st0" d="M476,564.4h-31.8c-0.8,0-1.5-0.2-1.5-0.4l-1.4-8.1c0-0.2,0.6-0.4,1.3-0.4h30.7c0.8,0,1.4,0.2,1.5,0.4
				l2.4,8.1C477.3,564.2,476.7,564.4,476,564.4z"/>
		</g>
		<g>
			<path class="st0" d="M517.2,564.4h-31.8c-0.8,0-1.5-0.2-1.6-0.4l-2.6-8.1c-0.1-0.2,0.5-0.4,1.3-0.4h30.7c0.8,0,1.5,0.2,1.5,0.4
				l3.6,8.1C518.6,564.2,518,564.4,517.2,564.4z"/>
		</g>
		<g>
			<path class="st0" d="M558.5,564.4h-31.8c-0.8,0-1.5-0.2-1.6-0.4l-3.8-8.1c-0.1-0.2,0.5-0.4,1.2-0.4h30.7c0.8,0,1.5,0.2,1.6,0.4
				l4.9,8.1C559.8,564.2,559.3,564.4,558.5,564.4z"/>
		</g>
		<g>
			<path class="st0" d="M614.8,576.9h-25.3c-3.2,0-6.3-0.7-6.9-1.6l-1.7-2.6c-0.6-0.9,1.5-1.6,4.7-1.6h24.8c3.1,0,6.2,0.7,6.9,1.6
				l2,2.6C620.1,576.2,618,576.9,614.8,576.9z"/>
		</g>
		<g>
			<path class="st0" d="M658.1,576.9h-25.3c-3.2,0-6.4-0.7-7.1-1.6l-2.1-2.6c-0.7-0.9,1.3-1.6,4.4-1.6h24.8c3.1,0,6.3,0.7,7.2,1.6
				l2.4,2.6C663.2,576.2,661.3,576.9,658.1,576.9z"/>
		</g>
		<g>
			<path class="st0" d="M652.3,570.5h-24.7c-3.1,0-6.2-0.7-6.9-1.5l-2-2.4c-0.7-0.8,1.3-1.5,4.4-1.5h24.2c3.1,0,6.2,0.7,7,1.5
				l2.3,2.4C657.3,569.8,655.4,570.5,652.3,570.5z"/>
		</g>
		<g>
			<path class="st0" d="M701.4,576.9h-25.3c-3.2,0-6.5-0.7-7.3-1.6l-2.4-2.6c-0.8-0.9,1.1-1.6,4.2-1.6h24.8c3.1,0,6.5,0.7,7.4,1.6
				l2.8,2.6C706.4,576.2,704.6,576.9,701.4,576.9z"/>
		</g>
		<g>
			<path class="st0" d="M254,554.2h-30.6c-0.8,0-1.3-0.2-1.1-0.4l5-7.5c0.1-0.2,0.8-0.3,1.6-0.3h29.6c0.7,0,1.3,0.1,1.2,0.3
				l-4.1,7.5C255.5,554,254.8,554.2,254,554.2z"/>
		</g>
		<g>
			<path class="st0" d="M294.1,554.2h-30.6c-0.8,0-1.3-0.2-1.2-0.4l3.9-7.5c0.1-0.2,0.8-0.3,1.5-0.3h29.6c0.7,0,1.3,0.1,1.2,0.3
				l-2.9,7.5C295.6,554,294.9,554.2,294.1,554.2z"/>
		</g>
		<g>
			<path class="st0" d="M334.2,554.2h-30.6c-0.8,0-1.3-0.2-1.3-0.4l2.7-7.5c0.1-0.2,0.7-0.3,1.5-0.3h29.6c0.7,0,1.3,0.1,1.3,0.3
				l-1.8,7.5C335.6,554,335,554.2,334.2,554.2z"/>
		</g>
		<g>
			<path class="st0" d="M374,554.2h-30.6c-0.8,0-1.3-0.2-1.3-0.4l1.6-7.5c0-0.2,0.7-0.3,1.4-0.3h29.6c0.7,0,1.3,0.1,1.3,0.3
				l-0.6,7.5C375.4,554,374.8,554.2,374,554.2z"/>
		</g>
		<g>
			<path class="st0" d="M414.1,554.2h-30.6c-0.8,0-1.4-0.2-1.4-0.4l0.4-7.5c0-0.2,0.6-0.3,1.4-0.3h29.6c0.7,0,1.3,0.1,1.4,0.3
				l0.5,7.5C415.5,554,414.9,554.2,414.1,554.2z"/>
		</g>
		<g>
			<path class="st0" d="M452.5,554.2h-30.6c-0.8,0-1.4-0.2-1.4-0.4l-0.7-7.5c0-0.2,0.6-0.3,1.3-0.3h29.6c0.7,0,1.4,0.1,1.4,0.3
				l1.6,7.5C453.8,554,453.2,554.2,452.5,554.2z"/>
		</g>
		<g>
			<path class="st0" d="M492.2,554.2h-30.6c-0.8,0-1.4-0.2-1.5-0.4l-1.8-7.5c0-0.2,0.5-0.3,1.3-0.3h29.6c0.7,0,1.4,0.1,1.5,0.3
				l2.8,7.5C493.5,554,493,554.2,492.2,554.2z"/>
		</g>
		<g>
			<path class="st0" d="M531.9,554.2h-30.6c-0.8,0-1.4-0.2-1.5-0.4l-3-7.5c-0.1-0.2,0.5-0.3,1.2-0.3h29.6c0.7,0,1.4,0.1,1.5,0.3
				l3.9,7.5C533.2,554,532.7,554.2,531.9,554.2z"/>
		</g>
		<g>
			<path class="st0" d="M571.4,554.2h-30.6c-0.8,0-1.5-0.2-1.6-0.4l-4.1-7.5c-0.1-0.2,0.4-0.3,1.2-0.3h29.6c0.7,0,1.4,0.1,1.6,0.3
				l5.1,7.5C572.6,554,572.1,554.2,571.4,554.2z"/>
		</g>
		<g>
			<path class="st0" d="M610.8,554.2h-30.6c-0.8,0-1.5-0.2-1.6-0.4l-5.2-7.5c-0.1-0.2,0.4-0.3,1.1-0.3h29.6c0.7,0,1.5,0.1,1.6,0.3
				l6.2,7.5C612.1,554,611.6,554.2,610.8,554.2z"/>
		</g>
		<g>
			<path class="st0" d="M599.3,564.4h-31.8c-0.8,0-1.5-0.2-1.7-0.4l-5.1-8.1c-0.1-0.2,0.4-0.4,1.2-0.4h30.7c0.8,0,1.5,0.2,1.7,0.4
				l6.1,8.1C600.6,564.2,600.1,564.4,599.3,564.4z"/>
		</g>
		<g>
			<path class="st0" d="M680.8,554.2h-59c-1,0-2.1-0.2-2.3-0.5l-6.2-7.3c-0.2-0.3,0.4-0.5,1.4-0.5h57.2c1,0,2.1,0.2,2.3,0.5l7.9,7.3
				C682.4,553.9,681.8,554.2,680.8,554.2z"/>
		</g>
		<g>
			<path class="st0" d="M691.5,564.4h-82.3c-1.3,0-2.5-0.3-2.7-0.6l-5.9-7.7c-0.2-0.3,0.5-0.6,1.8-0.6h79.6c1.2,0,2.5,0.3,2.8,0.6
				l8.4,7.7C693.5,564.1,692.8,564.4,691.5,564.4z"/>
		</g>
		<g>
			<path class="st0" d="M174.2,554.2h-59.7c-1.1,0-1.7-0.2-1.4-0.5l7.9-7.3c0.3-0.3,1.3-0.5,2.3-0.5h57.8c1,0,1.7,0.2,1.5,0.5
				l-6.1,7.3C176.3,553.9,175.3,554.2,174.2,554.2z"/>
		</g>
		<g>
			<path class="st0" d="M186.6,564.4h-83.5c-1.3,0-2-0.3-1.6-0.6l8.4-7.7c0.3-0.3,1.6-0.6,2.8-0.6h80.7c1.2,0,2,0.3,1.8,0.6
				l-5.9,7.7C189.1,564.1,187.9,564.4,186.6,564.4z"/>
		</g>
		<g>
			<path class="st0" d="M250.4,544.7h-29.5c-0.7,0-1.2-0.1-1.1-0.3l4.9-7c0.1-0.2,0.8-0.3,1.5-0.3h28.6c0.7,0,1.2,0.1,1.1,0.3l-4,7
				C251.8,544.5,251.2,544.7,250.4,544.7z"/>
		</g>
		<g>
			<path class="st0" d="M288.6,544.7h-29.5c-0.7,0-1.2-0.1-1.2-0.3l3.9-7c0.1-0.2,0.7-0.3,1.5-0.3h28.6c0.7,0,1.2,0.1,1.2,0.3l-3,7
				C290,544.5,289.4,544.7,288.6,544.7z"/>
		</g>
		<g>
			<path class="st0" d="M327.1,544.7h-29.5c-0.7,0-1.3-0.1-1.2-0.3l2.8-7c0.1-0.2,0.7-0.3,1.4-0.3h28.6c0.7,0,1.3,0.1,1.2,0.3
				l-1.9,7C328.4,544.5,327.8,544.7,327.1,544.7z"/>
		</g>
		<g>
			<path class="st0" d="M365.5,544.7H336c-0.7,0-1.3-0.1-1.2-0.3l1.7-7c0-0.2,0.7-0.3,1.4-0.3h28.6c0.7,0,1.3,0.1,1.3,0.3l-0.8,7
				C366.8,544.5,366.2,544.7,365.5,544.7z"/>
		</g>
		<g>
			<path class="st0" d="M403.7,544.7h-29.5c-0.7,0-1.3-0.1-1.3-0.3l0.7-7c0-0.2,0.6-0.3,1.3-0.3h28.6c0.7,0,1.3,0.1,1.3,0.3l0.2,7
				C405,544.5,404.4,544.7,403.7,544.7z"/>
		</g>
		<g>
			<path class="st0" d="M441,544.7h-29.5c-0.7,0-1.3-0.1-1.3-0.3l-0.4-7c0-0.2,0.6-0.3,1.3-0.3h28.6c0.7,0,1.3,0.1,1.3,0.3l1.3,7
				C442.3,544.5,441.8,544.7,441,544.7z"/>
		</g>
		<g>
			<path class="st0" d="M479.8,544.7h-29.5c-0.7,0-1.4-0.1-1.4-0.3l-1.4-7c0-0.2,0.5-0.3,1.2-0.3h28.6c0.7,0,1.3,0.1,1.4,0.3l2.3,7
				C481,544.5,480.5,544.7,479.8,544.7z"/>
		</g>
		<g>
			<path class="st0" d="M518,544.7h-29.5c-0.7,0-1.4-0.1-1.4-0.3l-2.5-7c-0.1-0.2,0.5-0.3,1.2-0.3h28.6c0.7,0,1.4,0.1,1.4,0.3l3.4,7
				C519.3,544.5,518.8,544.7,518,544.7z"/>
		</g>
		<g>
			<path class="st0" d="M555.7,544.7h-29.5c-0.7,0-1.4-0.1-1.5-0.3l-3.6-7c-0.1-0.2,0.4-0.3,1.1-0.3h28.6c0.7,0,1.4,0.1,1.5,0.3
				l4.4,7C556.9,544.5,556.4,544.7,555.7,544.7z"/>
		</g>
		<g>
			<path class="st0" d="M594.9,544.7h-29.5c-0.7,0-1.4-0.1-1.5-0.3l-4.6-7c-0.1-0.2,0.4-0.3,1.1-0.3h28.6c0.7,0,1.4,0.1,1.5,0.3
				l5.5,7C596.1,544.5,595.6,544.7,594.9,544.7z"/>
		</g>
		<g>
			<path class="st0" d="M632.4,544.7h-29.5c-0.7,0-1.4-0.1-1.6-0.3l-5.7-7c-0.1-0.2,0.3-0.3,1-0.3h28.6c0.7,0,1.4,0.1,1.6,0.3l6.6,7
				C633.6,544.5,633.1,544.7,632.4,544.7z"/>
		</g>
		<g>
			<path class="st0" d="M671,544.7h-29.5c-0.7,0-1.5-0.1-1.6-0.3l-6.8-7c-0.2-0.2,0.3-0.3,1-0.3h28.6c0.7,0,1.4,0.1,1.6,0.3l7.6,7
				C672.2,544.5,671.7,544.7,671,544.7z"/>
		</g>
		<g>
			<path class="st0" d="M199.8,535.9h-28.4c-0.7,0-1.2-0.1-1-0.3l6.1-6.5c0.1-0.2,0.8-0.3,1.5-0.3h27.6c0.7,0,1.1,0.1,1,0.3
				l-5.2,6.5C201.2,535.7,200.5,535.9,199.8,535.9z"/>
		</g>
		<g>
			<path class="st0" d="M236.3,535.9h-28.4c-0.7,0-1.2-0.1-1-0.3l5.1-6.5c0.1-0.2,0.8-0.3,1.5-0.3H241c0.7,0,1.2,0.1,1.1,0.3
				l-4.3,6.5C237.7,535.7,237,535.9,236.3,535.9z"/>
		</g>
		<g>
			<path class="st0" d="M273.7,535.9h-28.4c-0.7,0-1.2-0.1-1.1-0.3l4.1-6.5c0.1-0.2,0.7-0.3,1.4-0.3h27.6c0.7,0,1.2,0.1,1.1,0.3
				l-3.3,6.5C275,535.7,274.4,535.9,273.7,535.9z"/>
		</g>
		<g>
			<path class="st0" d="M310.2,535.9h-28.4c-0.7,0-1.2-0.1-1.1-0.3l3.1-6.5c0.1-0.2,0.7-0.3,1.4-0.3h27.6c0.7,0,1.2,0.1,1.1,0.3
				l-2.3,6.5C311.5,535.7,310.9,535.9,310.2,535.9z"/>
		</g>
		<g>
			<path class="st0" d="M347.8,535.9h-28.4c-0.7,0-1.2-0.1-1.2-0.3l2.1-6.5c0.1-0.2,0.7-0.3,1.3-0.3h27.6c0.7,0,1.2,0.1,1.2,0.3
				l-1.3,6.5C349.1,535.7,348.5,535.9,347.8,535.9z"/>
		</g>
		<g>
			<path class="st0" d="M383.9,535.9h-28.4c-0.7,0-1.3-0.1-1.2-0.3l1.1-6.5c0-0.2,0.6-0.3,1.3-0.3h27.6c0.7,0,1.2,0.1,1.2,0.3
				l-0.3,6.5C385.2,535.7,384.6,535.9,383.9,535.9z"/>
		</g>
		<g>
			<path class="st0" d="M421.5,535.9H393c-0.7,0-1.3-0.1-1.3-0.3l0.1-6.5c0-0.2,0.6-0.3,1.3-0.3h27.6c0.7,0,1.3,0.1,1.3,0.3l0.7,6.5
				C422.7,535.7,422.2,535.9,421.5,535.9z"/>
		</g>
		<g>
			<path class="st0" d="M457.9,535.9h-28.4c-0.7,0-1.3-0.1-1.3-0.3l-0.8-6.5c0-0.2,0.5-0.3,1.2-0.3h27.6c0.7,0,1.3,0.1,1.3,0.3
				l1.7,6.5C459.2,535.7,458.7,535.9,457.9,535.9z"/>
		</g>
		<g>
			<path class="st0" d="M495.4,535.9H467c-0.7,0-1.3-0.1-1.4-0.3l-1.8-6.5c0-0.2,0.5-0.3,1.2-0.3h27.6c0.7,0,1.3,0.1,1.4,0.3
				l2.7,6.5C496.6,535.7,496.1,535.9,495.4,535.9z"/>
		</g>
		<g>
			<path class="st0" d="M532.8,535.9h-28.4c-0.7,0-1.3-0.1-1.4-0.3l-2.8-6.5c-0.1-0.2,0.4-0.3,1.1-0.3h27.6c0.7,0,1.3,0.1,1.4,0.3
				l3.7,6.5C534,535.7,533.5,535.9,532.8,535.9z"/>
		</g>
		<g>
			<path class="st0" d="M569.8,535.9h-28.4c-0.7,0-1.4-0.1-1.5-0.3l-3.8-6.5c-0.1-0.2,0.4-0.3,1.1-0.3h27.6c0.7,0,1.3,0.1,1.4,0.3
				l4.7,6.5C571,535.7,570.5,535.9,569.8,535.9z"/>
		</g>
		<g>
			<path class="st0" d="M605.4,535.9H577c-0.7,0-1.4-0.1-1.5-0.3l-4.8-6.5c-0.1-0.2,0.3-0.3,1-0.3h27.6c0.7,0,1.4,0.1,1.5,0.3
				l5.6,6.5C606.6,535.7,606.1,535.9,605.4,535.9z"/>
		</g>
		<g>
			<path class="st0" d="M658.7,535.9h-42.5c-2,0-3.9-0.4-4.3-0.8l-4.9-5.5c-0.4-0.4,0.8-0.8,2.8-0.8h41.3c1.9,0,3.8,0.4,4.3,0.8
				l6,5.5C661.9,535.5,660.7,535.9,658.7,535.9z"/>
		</g>
		<g>
			<path class="st0" d="M170.7,544.7h-44.1c-2,0-3.3-0.4-2.7-0.9l6.4-5.9c0.5-0.5,2.5-0.9,4.5-0.9h42.8c2,0,3.2,0.4,2.8,0.9
				l-5.2,5.9C174.7,544.3,172.7,544.7,170.7,544.7z"/>
		</g>
	</g>
</g>
<g>
	<path class="st5" d="M601.5-0.3H343c-9.7,0-17.6,7.9-17.6,17.6v182.8c0,9.7,7.9,17.6,17.6,17.6h201.8c27,0,39.2-21.9,39.2-48.8
		V17.2C584,7.5,591.8-0.3,601.5-0.3z"/>
	<path class="st6" d="M548.4,200.1v-35.5V80.9c0-9.7-7.9-17.6-17.6-17.6h-1.2c-9.7,0-17.6,7.9-17.6,17.6v136.8h36.4H566
		C556.3,217.7,548.4,209.8,548.4,200.1z"/>
	<path class="st6" d="M620.2,154V17.2c0-9.7-7.9-17.6-17.6-17.6h-1.2c-9.7,0-17.6,7.9-17.6,17.6V154H620.2z"/>
	<path class="st5" d="M566.4-0.3H566c-9.7,0-17.6,7.9-17.6,17.6v63.6v83.7v35.5c0,9.7,7.9,17.6,17.6,17.6h0.4
		c9.7,0,17.6-7.9,17.6-17.6V17.2C584,7.5,576.1-0.3,566.4-0.3z"/>
	<path class="st7" d="M529.6,63.3h-277c-9.7,0-17.6,7.9-17.6,17.6l2.7,365.6h277L512,80.9C512,71.2,519.9,63.3,529.6,63.3z"/>
	<g>
		
			<ellipse transform="matrix(0.9922 -0.1249 0.1249 0.9922 -15.204 39.8125)" class="st0" cx="310" cy="141.2" rx="39.8" ry="40.3"/>
		<path class="st8" d="M476.5,125.8h-99.3c-3.3,0-6-2.7-6-6.1l0,0c0-3.3,2.7-6.1,6-6.1h99.3c3.3,0,6,2.7,6,6.1l0,0
			C482.5,123,479.8,125.8,476.5,125.8z"/>
		<path class="st0" d="M476.6,153.3h-99.3c-3.3,0-6-2.7-6-6.1v0c0-3.3,2.7-6.1,6-6.1h99.3c3.3,0,6,2.7,6,6.1v0
			C482.6,150.6,479.9,153.3,476.6,153.3z"/>
		<g>
			<g>
				<defs>
					
						<ellipse id="SVGID_3_" transform="matrix(0.8412 -0.5407 0.5407 0.8412 -27.4824 186.6373)" cx="304" cy="140.1" rx="41.2" ry="39.6"/>
				</defs>
				<use xlink:href="#SVGID_3_"  style="overflow:visible;fill:#C2D4EA;"/>
				<clipPath id="SVGID_1_">
					<use xlink:href="#SVGID_3_"  style="overflow:visible;"/>
				</clipPath>
				<g class="st9">
					<path class="st10" d="M292.6,140.8c0.5,1.5,1.1,3.1,2.3,4.2c1.9,1.6,4.7,1.7,7.3,1.7c3,0,6.3,0,8.6-1.8c1.3-1,2.2-2.4,2.8-3.8
						c2.2-5,2-10.7-0.3-15.4c-0.4-0.9-1-1.7-1.8-2.3c-1-0.8-2.4-1.1-3.8-1.2c-3.5-0.3-7.2,0.6-10.1,2.4c-2.8,1.8-5.2,4.6-6.1,7.6
						C290.6,134.8,291.8,138.2,292.6,140.8z"/>
					<path class="st11" d="M308.9,161.1c-1.4,0.9-5.6,0.4-6.9,1.1c-1.4,0.8-5.9,1-7.3,0.6c0.2-6.6,3.6-13.3,3.9-19.4
						c2.5,5.6,5.5,2.5,8.4-1.3C306.7,148.1,309.1,155.1,308.9,161.1z"/>
					<path class="st12" d="M298.3,148.2c0.2,0.7,0.6,1.3,0.9,1.9c0.7,1.1,1.8,1.9,3,2.2c1.5,0.4,3.1-0.3,4.3-1.3
						c0.4-0.3,0.8-0.7,1.1-1c-0.4-2.7-0.8-5.4-0.7-7.8c-2.9,3.8-5.9,6.9-8.4,1.3c0.2,0.4-0.1,1.2-0.1,1.6c-0.1,0.6-0.2,1.2-0.3,1.8
						C298.1,147.3,298.2,147.7,298.3,148.2z"/>
					<path class="st13" d="M323.7,188.4c-0.2-2.3-0.4-4.6-0.7-6.8c-0.2-1.8-0.4-3.7-0.6-5.5c-0.2-1.9-0.5-3.8-0.7-5.8
						c-0.7-5.4-1.3-12.2-3.5-17.2c-0.1-0.2-0.1-0.3-0.1-0.5c-0.1,0-8-2.9-10.5-3.1c0,1.8-1.6,6.1-5.2,6c-2.2,0-4.8-3.3-4.8-6
						c-3.3,0.3-10.7,3.1-10.7,3.1c-1.8,0.4-3.3,10.6-3.6,11.9c-1.1,5.7-2.4,11.4-3.3,17.1c0,0.1,0,0.1,0,0.2
						c-0.4,2.2-0.7,4.3-1.1,6.5H323.7z"/>
					<path class="st14" d="M286.8,152.7C286.9,152.7,286.9,152.7,286.8,152.7c-1.9,0.6-5.6,2.8-7.5,3.9c-3.2,1.7-5.9,4.5-8.1,7.9
						c-1.9,3-3.4,6.4-4.6,9.9c0.9,1.7,2.2,3.2,3.9,4.3c2.3,1.6,7,3.3,7.5,3.5c1.1-2,2.2-3.2,2.6-4.3c0.8-4.2,1.8-9.1,2.6-13.3
						C283.5,163.3,285.1,153.1,286.8,152.7z"/>
					<path class="st14" d="M333,164c-1.9-3.4-4.4-6.2-7.5-8c-2-1.2-7.6-3.4-7.5-3.4c0,0.2,2.9,12.2,3.6,17.6c0.3,1.9,0.2,2,0.5,3.9
						c0.2,1.8,2.3,6.5,3.8,8.4c2.1-0.6,5.5-2.5,7.1-3.4c2.4-1.5,2.8-2.4,3.7-3.5C335.9,172,334.7,167.1,333,164z"/>
					<path class="st11" d="M292.7,136.4c0.3,2.9,1,5.8,2.5,8.2s4.2,4.3,7.1,4.4c3.7,0.1,7.2-2.6,9-5.9c1.8-3.3,2.2-7.1,2.6-10.7
						c0.3-3.1,0.5-6.4-0.9-9.2c-0.5-1-1.2-1.9-2.2-2.5c-0.7-0.4-1.4-0.7-2.2-1c-3.3-0.9-7.1-0.6-10.2,1.1
						C292.4,124.1,292,130.4,292.7,136.4z"/>
					<path class="st10" d="M317,123.5c1-1,1.6-2.2,1.7-3.6c0-0.4-0.3-1-0.7-0.9c-0.1,0.3-0.2,0.6-0.3,0.8c-0.6,0.2-1.2-0.3-1.6-0.8
						c-0.5-0.5-1-1.1-1.4-1.6c-0.3-0.5-0.6-0.9-1-1.3c-0.1-0.1-0.1-0.2-0.2-0.3c-0.5-0.8-1-1.8-1.6-2.5c-1.9-2.1-5.2-2.4-8.1-2.3
						c-1.8,0.1-3.6,0.2-5.3,0.9c-1.7,0.7-3.2,1.9-3.9,3.6c-0.1,0.2-0.1,0.4-0.2,0.6c-4,2.5-6.4,7.5-5.4,12c0.3,1.5,1,3,0.7,4.6
						c0.1,0.9,0.2,1.8,0.2,2.7c0.6,0.7,1.7,1.1,2.4,0.4c0.5-0.5,0.6-1.2,0.6-1.9c0.1-2,0.2-4,0.3-5.9c0-0.4,0-0.8,0.2-1.1
						c0.2-0.3,0.5-0.5,0.8-0.8c1.3-0.9,2.3-2.1,3.1-3.5c1.3,1.2,2.8,2.1,4,2.6c2.7,1,5.7,1.1,8.6,0.8c0.8-0.1,1.6-0.2,2.4-0.4
						c0.1,2.7,0.1,5.5,0.2,8.2c0,1,0.2,2.3,1.2,2.5c0.7,0.2,1.4-0.2,1.8-0.8c0.4-0.6,0.6-1.3,0.7-2c0.7-3.4,1.1-6.8,0.7-10.2
						C317,123.7,317,123.6,317,123.5z"/>
					<path class="st12" d="M293.4,137.6c-0.1-1.5-0.4-3.1-0.3-4.7c-0.3-0.2-0.4-0.2-0.7-0.2c-0.3,0-0.5,0-0.8,0.1
						c-0.4,0.2-0.6,0.7-0.7,1.2c-0.4,1.5-0.5,3.2-0.1,4.7c0.4,1.5,1.4,2.8,2.7,3.3c0.2,0.1,0.3,0.1,0.5,0
						C293.7,140.6,293.5,139.2,293.4,137.6z"/>
					<path class="st12" d="M315.7,134.1c-0.1-0.5-0.2-1-0.6-1.2c-0.2-0.1-0.5-0.2-0.7-0.1c-0.6,0.1-1.1,0.4-1.6,0.9
						c-0.1,0-0.1,0.1-0.2,0.1c0,0.9,0,1.8-0.1,2.7c-0.1,1.8,0,2.8-0.4,4.6c0,0.2-0.3,1.1-0.4,1.3c0.2,0,0.5-0.1,0.7-0.2
						c1.4-0.5,2.5-1.8,3-3.3C315.9,137.2,315.9,135.6,315.7,134.1z"/>
				</g>
			</g>
		</g>
	</g>
	<g>
		<path class="st6" d="M297.7,249.8h-16.8c-4.9,0-8.8-4-8.8-8.8v-16.8c0-4.9,4-8.8,8.8-8.8h16.8c4.9,0,8.8,4,8.8,8.8v16.8
			C306.5,245.8,302.6,249.8,297.7,249.8z M280.9,218.9c-2.9,0-5.3,2.4-5.3,5.3v16.8c0,2.9,2.4,5.3,5.3,5.3h16.8
			c2.9,0,5.3-2.4,5.3-5.3v-16.8c0-2.9-2.4-5.3-5.3-5.3H280.9z"/>
		<path class="st6" d="M297.7,300.3h-16.8c-4.9,0-8.8-4-8.8-8.8v-16.8c0-4.9,4-8.8,8.8-8.8h16.8c4.9,0,8.8,4,8.8,8.8v16.8
			C306.5,296.3,302.6,300.3,297.7,300.3z M280.9,269.4c-2.9,0-5.3,2.4-5.3,5.3v16.8c0,2.9,2.4,5.3,5.3,5.3h16.8
			c2.9,0,5.3-2.4,5.3-5.3v-16.8c0-2.9-2.4-5.3-5.3-5.3H280.9z"/>
		<path class="st6" d="M297.7,350.1h-16.8c-4.9,0-8.8-4-8.8-8.8v-16.8c0-4.9,4-8.8,8.8-8.8h16.8c4.9,0,8.8,4,8.8,8.8v16.8
			C306.5,346.2,302.6,350.1,297.7,350.1z M280.9,319.3c-2.9,0-5.3,2.4-5.3,5.3v16.8c0,2.9,2.4,5.3,5.3,5.3h16.8
			c2.9,0,5.3-2.4,5.3-5.3v-16.8c0-2.9-2.4-5.3-5.3-5.3H280.9z"/>
		<g>
			<path class="st8" d="M482.9,224.1H358.6c-0.9,0-1.6-0.7-1.6-1.6v-0.3c0-0.9,0.7-1.6,1.6-1.6h124.3c0.9,0,1.6,0.7,1.6,1.6v0.3
				C484.5,223.4,483.8,224.1,482.9,224.1z"/>
			<path class="st8" d="M482.9,234.3H336.5c-0.9,0-1.6-0.7-1.6-1.6v-0.3c0-0.9,0.7-1.6,1.6-1.6h146.4c0.9,0,1.6,0.7,1.6,1.6v0.3
				C484.5,233.6,483.8,234.3,482.9,234.3z"/>
			<path class="st8" d="M468.2,244.5H336.5c-0.9,0-1.6-0.7-1.6-1.6v-0.3c0-0.9,0.7-1.6,1.6-1.6h131.6c0.9,0,1.6,0.7,1.6,1.6v0.3
				C469.7,243.8,469,244.5,468.2,244.5z"/>
		</g>
		<g>
			<path class="st8" d="M482.9,273H358.6c-0.9,0-1.6-0.7-1.6-1.6v-0.3c0-0.9,0.7-1.6,1.6-1.6h124.3c0.9,0,1.6,0.7,1.6,1.6v0.3
				C484.5,272.3,483.8,273,482.9,273z"/>
			<path class="st8" d="M482.9,283.2H336.5c-0.9,0-1.6-0.7-1.6-1.6v-0.3c0-0.9,0.7-1.6,1.6-1.6h146.4c0.9,0,1.6,0.7,1.6,1.6v0.3
				C484.5,282.4,483.8,283.2,482.9,283.2z"/>
			<path class="st8" d="M394.4,293.3h-57.9c-0.9,0-1.6-0.7-1.6-1.6v-0.3c0-0.9,0.7-1.6,1.6-1.6h57.9c0.9,0,1.6,0.7,1.6,1.6v0.3
				C396,292.6,395.3,293.3,394.4,293.3z"/>
		</g>
		<g>
			<path class="st8" d="M482.9,324.5H358.6c-0.9,0-1.6-0.7-1.6-1.6v-0.3c0-0.9,0.7-1.6,1.6-1.6h124.3c0.9,0,1.6,0.7,1.6,1.6v0.3
				C484.5,323.8,483.8,324.5,482.9,324.5z"/>
			<path class="st8" d="M482.9,334.7H336.5c-0.9,0-1.6-0.7-1.6-1.6v-0.3c0-0.9,0.7-1.6,1.6-1.6h146.4c0.9,0,1.6,0.7,1.6,1.6v0.3
				C484.5,333.9,483.8,334.7,482.9,334.7z"/>
			<path class="st8" d="M336.5,344.8c-0.9,0-1.6-0.7-1.6-1.6v-0.3c0-0.9,0.7-1.6,1.6-1.6h116.9c0.9,0,1.6,0.7,1.6,1.6v0.3
				c0,0.9-0.7,1.6-1.6,1.6"/>
		</g>
		<g>
			<path class="st8" d="M482.7,378.5H277.4c-1,0-1.8-0.8-1.8-1.8l0,0c0-1,0.8-1.8,1.8-1.8h205.3c1,0,1.8,0.8,1.8,1.8l0,0
				C484.5,377.8,483.7,378.5,482.7,378.5z"/>
			<path class="st8" d="M386.1,388.7H277.4c-1,0-1.8-0.8-1.8-1.8l0,0c0-1,0.8-1.8,1.8-1.8h108.7c1,0,1.8,0.8,1.8,1.8l0,0
				C387.8,387.9,387.1,388.7,386.1,388.7z"/>
			<path class="st8" d="M386.1,409.6H277.4c-1,0-1.8-0.8-1.8-1.8l0,0c0-1,0.8-1.8,1.8-1.8h108.7c1,0,1.8,0.8,1.8,1.8l0,0
				C387.8,408.8,387.1,409.6,386.1,409.6z"/>
			<path class="st8" d="M470.7,398.9H277.4c-1,0-1.8-0.8-1.8-1.8l0,0c0-1,0.8-1.8,1.8-1.8h193.2c1,0,1.8,0.8,1.8,1.8l0,0
				C472.4,398.1,471.6,398.9,470.7,398.9z"/>
		</g>
		<path class="st15" d="M293.3,239.9c-0.7,0-1.4-0.2-2-0.7l-9.7-8.4c-1.3-1.1-1.4-3-0.3-4.3c1.1-1.3,3-1.4,4.3-0.3l7.4,6.5
			l27.7-30.4c1.1-1.2,3-1.3,4.3-0.2c1.2,1.1,1.3,3,0.2,4.3l-29.7,32.6C294.9,239.6,294.1,239.9,293.3,239.9z"/>
		<path class="st15" d="M293.3,288.8c-0.7,0-1.4-0.2-2-0.7l-9.7-8.4c-1.3-1.1-1.4-3-0.3-4.3c1.1-1.3,3-1.4,4.3-0.3l7.4,6.5
			l27.7-30.4c1.1-1.2,3-1.3,4.3-0.2c1.2,1.1,1.3,3,0.2,4.3l-29.7,32.6C294.9,288.5,294.1,288.8,293.3,288.8z"/>
		<path class="st15" d="M293.3,338.6c-0.7,0-1.4-0.2-2-0.7l-9.7-8.4c-1.3-1.1-1.4-3-0.3-4.3c1.1-1.3,3-1.4,4.3-0.3l7.4,6.5
			l27.7-30.4c1.1-1.2,3-1.3,4.3-0.2c1.2,1.1,1.3,3,0.2,4.3l-29.7,32.6C294.9,338.3,294.1,338.6,293.3,338.6z"/>
	</g>
</g>
<g>
	<polygon class="st5" points="515,531.5 489.3,545.8 515,560.2 	"/>
	<polygon class="st16" points="495.4,541.7 489.3,545.8 495.4,549.9 	"/>
	<path class="st17" d="M649.1,554.4l0-16.9c0-3.2,2.6-5.9,5.9-5.9l35.2,0.1c3.2,0,5.9,2.6,5.9,5.9l0,16.9c0,3.2-2.6,5.9-5.9,5.9
		l-35.2-0.1C651.7,560.3,649.1,557.7,649.1,554.4z"/>
	<rect x="515" y="531.6" class="st18" width="141.5" height="9.6"/>
	<rect x="515" y="541.1" class="st19" width="141.5" height="9.6"/>
	<rect x="515" y="550.7" class="st20" width="141.5" height="9.6"/>
	
		<rect x="641.4" y="543.1" transform="matrix(-1.694789e-03 1 -1 -1.694789e-03 1202.8627 -108.888)" class="st21" width="28.7" height="5.8"/>
</g>
<g>
	<path class="st11" d="M415.7,300.2c0,0,23.9-13.3,28.1-16.7s5.7-6.1,4.2-17.5c-1.5-11.4-3.5-23.8-4.7-25.4
		c-1.1-1.6-3.7-2.5-6.8-3.8c-3.2-1.3-7.8-3.8-6.1-4.3c1.8-0.5,5.1,0.3,5.7,0.8c0.6,0.5,3.7,1.3,3.7,1.3s1-2.7-0.1-3.8
		c-1.1-1.1-7.7-1.3-8.5-1.4c-0.8-0.1-1.5-1.8,2.2-2.5c3.7-0.8,4.7-0.6,6.3,0c1.6,0.6,5.8,3.3,6.7,4.4c0.9,1.1,0.8,5.8,1.3,7.6
		c0.5,1.8,7.8,20.2,9.6,26.8c1.8,6.6,7.7,13.3-2.3,24.5c-10,11.3-41.2,40.2-41.2,40.2s-8.3-7-8.9-15.1
		C404.4,307.2,415.7,300.2,415.7,300.2z"/>
	<path class="st13" d="M444.8,300c0,0-0.2-0.2-0.4-0.4c-0.5-0.6-1-1.2-1.6-1.8c-1.2-1.3-2.5-2.5-3.8-3.7c-0.1-0.1-0.3-0.2-0.4-0.3
		c0,0-0.2-0.1-0.4-0.3c-0.6-0.4-1.3-0.8-1.9-1.2c-0.2-0.2-1.3-0.6-1.4-0.7c-0.4-0.1-0.9-0.3-1.3-0.4c-0.4-0.1-0.7-0.2-1.1-0.4
		c-7.9,4.6-16.7,9.5-16.7,9.5s-11.4,7.1-10.9,15.2c0.5,8.1,8.9,15.1,8.9,15.1s18.3-17,31.4-30C445,300.2,444.9,300.1,444.8,300z"/>
	<g>
		<path class="st10" d="M382.8,575.8c-0.7,5.4-1.3,12.9-1.2,18.6c0,0,0.5,0.2,1.2,0.5c-0.4,3.7-0.6,7.5-0.8,11.3
			c-3.8-0.6-6.8-1.5-6.8-1.5c-1.7-4.1-2.5-17.1-2.7-27.8C375.9,577.7,379.6,576.1,382.8,575.8z"/>
		<path class="st10" d="M408.7,573.9c-1.1,5.3-2.5,14.5-2.9,20.3c0,0,12.5,6.2,14,8.7c1.5,2.5-0.2,3.5-6.7,3.9
			c-6.5,0.4-14.5-2.9-14.5-2.9c-1.4-4.2-1.1-17.3-0.3-28C401.4,577,405.4,573.8,408.7,573.9z"/>
		<path class="st10" d="M407.3,388.2c-3.9,0-6.7,1.3-8.7,3.2c-2-1.8-4.6-3-8.2-3.1c-16.7-0.6-22.8,11.3-22.3,24
			c0.1,1.4,0.9,100.1,4.3,164.8c2.6-0.1,8.1-0.1,10.7-0.2c1-19.1,7.5-76.4,13.2-118.3c1.3,41.9,1.6,99,2,118
			c2.6,0.1,7.3,0.4,9.9,0.6c10.9-58.3,20.5-162.7,20.6-164.2C429.7,400.3,424.1,388.2,407.3,388.2z"/>
		<path class="st11" d="M395,395.1c0,0-7-0.9-14.9-3.3c0.7,2.6,1.1,5.4,1.2,8.1c3.2,0.3,5.9,0.4,7.6,0.5c7.1,0.5,14.8,0.6,17,0.6
			c-2-2.3-4-5.2-5.7-7.7C397.8,394,395,395.1,395,395.1z"/>
		<path class="st11" d="M386.3,400.3c-0.3-2.5-0.8-5-1.9-7.2c-10-2.5-23.8-7.7-25.4-17.4c-1.6-9.9,8.9-40.5,13.2-53.7
			c-1.8-0.4-3.6-0.8-5.4-1.1c-3.9-0.6-8.5-0.7-12.5-1.8c-3,8.2-14.5,41.2-10.8,59.5C347.6,398.1,375.1,399.7,386.3,400.3z"/>
		<path class="st11" d="M378.1,289.5c0-0.3,0.1-0.6,0.2-0.9c-0.3-0.4-0.5-0.9-0.7-1.4c-1.9-4.2-1.7-9.4,0.8-13.3
			c2.9-4.5,11.4-8.9,15.8-3.9c4.6,5.2,6.2,15,3.5,21.2c-0.5,1.1-1.1,2.2-2,3c-1,0.9-2.2,1.4-3.6,1.6c-0.2,2.8-0.9,5.8-1,8.4
			c-0.2,3.1-0.4,6.7-1.9,8.4c-1.2,1.4-2.8,0.8-4.1,0.1c-3-1.5-6.2-3.3-7.8-7.8c-0.4-1-0.7-2.2-0.7-3.5c-0.1-1.5,0.2-3.1,0.4-4.6
			C377.3,294.4,377.7,291.9,378.1,289.5z"/>
		<path class="st10" d="M395.4,279.4c1.2-0.3,2.6-0.3,3.8-0.5c0.6-0.1,1.1-0.4,1.4-0.8c1.4-1.7,1.8-3.7,0.8-6.3
			c-0.6-1.4-1.7-2.5-2.2-3.9c-0.6-1.4-0.4-2.2-0.4-3.8c0-1.8-0.2-3.3-0.7-4.4c-0.4-0.7-1.2-1.2-2-1.1c0,0,0,0,0,0
			c-2,0.2-3.9,0.7-5.8,1.3c-0.3,0.1-0.7,0.1-1,0.1c-7.7-1.2-17.9,2.6-20.3,7.2c-0.2,0.5-0.4,1-0.5,1.5c-0.1,0.4-0.2,0.8-0.5,1.1
			c-0.6,0.7-1,1.4-1.2,2.2c-1.1,4.5,5.4,8.5,6.2,13.2c0.2,1.1,0.1,2.2,0.3,3.3c0.6,3.9,5.5,7.3,10.8,7.6c5.3,0.3,10.3-2.6,11.2-6.4
			c0.1-0.6,0.2-1.2-0.1-1.8c-0.4-0.8-1.4-1.3-2.1-2C390.9,283.8,392.1,280.3,395.4,279.4z"/>
		<path class="st13" d="M420,332.7c-0.7-2.5-1.5-5-2.4-7.4c1.1-0.1-3.3-15.3-5.3-23c-6.5-0.7-12.3-1.4-15.1-1.4
			c-0.1,0-0.1,0-0.2-0.1c0,0-0.3,0-0.7-0.1c0.2-1.4,0-2.5-3-2.8c-5.6-0.7-14.8,0.5-17.7,1.1c-1.5,0.3-1.4,1.3-1,2.6
			c-0.1-0.1-0.1-0.1-0.2-0.2c-0.2,0.2-0.3,0.3-0.3,0.3s-21.1-0.9-26.9,40.5c2.2,5.3,13.7,7,16.4,7.3c0.4-0.7,0.8-2.7,1.3-4.4
			c1.5,10.2,2.3,12.8,3.9,31.8c-1,14.4-1.5,25.5-0.7,26c2.1,1.5,47.3,1,57.1-2.8c0.3,0,0.6-0.1,0.9-0.1c5.1-0.8,1.7-8.1,1.4-9.3
			C423.9,371.6,425,351.4,420,332.7z"/>
		<path class="st14" d="M426.7,397.2c-14.7-0.4-29.8-6.1-40-16.9c-9.5-10.1-15.3-23.5-20-36.3c-1.1-3.1-2.2-6.3-3.1-9.4
			c-0.1,0.1-0.2,0.2-0.3,0.2c1.5,10.1,3.9,23.2,5.5,42c-1,14.4-1.5,25.5-0.7,26c2.1,1.5,47.3,1,57.1-2.8c0.3,0,0.6-0.1,0.9-0.1
			c1.8-0.3,2.5-1.4,2.7-2.7C428.1,397.2,427.4,397.2,426.7,397.2z"/>
		<path class="st19" d="M396.2,300.7c0.2-1.4,0-2.5-3-2.8c-5.6-0.7-14.8,0.5-17.7,1.1c-1.4,0.3-1.4,1.2-1,2.3
			C381.6,303,396.3,300.7,396.2,300.7z"/>
		<path class="st22" d="M386.6,600.7c-0.4-1.7-1.3-3.3-2.2-4.8c-0.8-1.5-1.6-2.9-2.8-4.1c0-1.5,0-3,0.1-4.4c-3,0.5-5.9,0.5-8.8,0.1
			c0.1,2.1,0.1,4.2,0.1,6.2c-0.4,1.8-0.6,3.8-0.8,5.6c-0.2,2.1-0.6,4.8,1,6.5c1.2,1.3,3.1,1.5,4.9,1.4c1.7-0.1,6.5-0.1,7-0.4
			c0.4-0.2,0.7-0.5,0.9-0.9C387,604.3,387,602.4,386.6,600.7z"/>
		<path class="st22" d="M419.8,602.8c-1-1.8-7.7-5.4-11.4-7.4c-0.7-1.2-1.4-2.5-2.4-3.5c0.1-1.7,0.3-3.3,0.5-4.9c-3,0.3-6,0-8.8-0.6
			c-0.1,1.9-0.1,3.8-0.1,5.7c0,0.1-0.1,0.2-0.1,0.4c-0.6,2.2-0.8,4.6-1.1,6.8c-0.2,2.1-0.6,4.8,1,6.5c1.2,1.3,3.1,1.5,4.9,1.4
			c1.7-0.1,6.5-0.1,7-0.4c0,0,0.1-0.1,0.1-0.1c1.2,0.1,2.5,0.2,3.6,0.1C419.5,606.3,421.2,605.4,419.8,602.8z"/>
	</g>
	<g>
		<polygon class="st8" points="421.4,227.7 418.9,224.6 422.8,224.1 		"/>
		<polygon class="st16" points="419.5,225.4 418.9,224.6 419.9,224.4 		"/>
		<path class="st22" d="M452,236.3l-0.8,2.1c-0.2,0.4,0,0.9,0.4,1l4.4,1.7c0.4,0.2,0.9,0,1-0.4l0.8-2.1c0.2-0.4,0-0.9-0.4-1
			l-4.4-1.7C452.6,235.7,452.1,235.9,452,236.3z"/>
		<polygon class="st6" points="421.9,226.5 452.2,238.3 451.8,239.5 421.4,227.7 		"/>
		<polygon class="st23" points="422.4,225.3 452.7,237.1 452.2,238.3 421.9,226.5 		"/>
		<polygon class="st6" points="422.8,224.1 453.2,235.9 452.7,237.1 422.4,225.3 		"/>
		
			<rect x="450.5" y="237.3" transform="matrix(0.362 -0.9322 0.9322 0.362 67.078 573.3315)" class="st21" width="3.8" height="0.8"/>
	</g>
	<path class="st11" d="M439.5,230.7c0.1,0,0.2,0,0.3,0.1c2.3,1,4.6,1.8,7,2.6c0,0,0,0,0.1,0c-0.1-1-0.3-1.9-0.6-2.3
		c-0.9-1.1-5.1-3.8-6.7-4.4c-1.6-0.6-2.7-0.8-6.3,0c-3.7,0.8-2.9,2.4-2.2,2.5C431.8,229.4,438.4,229.6,439.5,230.7
		C439.5,230.7,439.5,230.7,439.5,230.7z"/>
	<path class="st11" d="M447.5,238.1c-0.8-0.5-1.6-1-2.5-1.4c-0.9-0.5-2-1.4-3.1-1.7c-0.1,0-0.2-0.1-0.2-0.1c-1.1-0.3-2-0.5-2-0.5
		s-3-0.8-3.7-1.3c-0.6-0.5-3.9-1.3-5.7-0.8c-1.8,0.5,2.9,3,6.1,4.3c3.2,1.3,5.7,2.2,6.8,3.8c0.3,0.4,0.6,1.4,0.9,2.8
		c1.6-0.3,3.2-0.5,4.7-0.8c-0.7-1.9-1.2-3.3-1.4-3.7C447.6,238.6,447.5,238.4,447.5,238.1z"/>
</g>
<g>
	<g>
		<ellipse class="st24" cx="225.8" cy="554.7" rx="32.2" ry="17.3"/>
		<g>
			<path class="st18" d="M225.5,581.4c-20.4,0-36.4-9.8-36.4-22.3c0-12.5,16-22.3,36.4-22.3c20.4,0,36.4,9.8,36.4,22.3
				C261.9,571.6,245.9,581.4,225.5,581.4z M225.5,542.4c-16.7,0-30.7,7.6-30.7,16.6c0,9,14.1,16.6,30.7,16.6
				c16.7,0,30.7-7.6,30.7-16.6C256.2,550,242.2,542.4,225.5,542.4z"/>
			<path class="st6" d="M225.5,576.4c-20.4,0-36.4-9.8-36.4-22.3c0-12.5,16-22.3,36.4-22.3c20.4,0,36.4,9.8,36.4,22.3
				C261.9,566.6,245.9,576.4,225.5,576.4z M225.5,537.4c-16.7,0-30.7,7.6-30.7,16.6c0,9,14.1,16.6,30.7,16.6
				c16.7,0,30.7-7.6,30.7-16.6C256.2,545.1,242.2,537.4,225.5,537.4z"/>
			<g>
				<path class="st25" d="M182.1,576.2l12.7-7c0,0,1.4-1.1,4.2,1.8c1.9,2-0.5,3.1-0.5,3.1l-13.7,7.4L182.1,576.2z"/>
				<path class="st6" d="M192.7,583.5c2-2.4,0.8-6.8-2.8-9.8c-3.6-3-7-3-10.2-1l-30,18l11.8,11.9L192.7,583.5z"/>
				<path class="st18" d="M159.1,592.4c3.6,3,4.9,7.4,2.8,9.8c-2,2.4-6.6,2-10.2-1c-3.6-3-4.9-7.4-2.8-9.8
					C151,589,155.6,589.4,159.1,592.4z"/>
			</g>
		</g>
	</g>
	<path class="st8" d="M222.4,548.7c0,1.6-3.2,2.8-7.2,2.8c-4,0-7.2-1.3-7.2-2.8c0-1.6,3.2-2.8,7.2-2.8
		C219.2,545.9,222.4,547.2,222.4,548.7z"/>
	<path class="st8" d="M209.8,552.9c0,0.9-1.9,1.6-4.1,1.6c-2.3,0-4.1-0.7-4.1-1.6s1.9-1.6,4.1-1.6
		C207.9,551.3,209.8,552,209.8,552.9z"/>
</g>
</svg>
