<?xml version="1.0" encoding="utf-8"?>
<!-- Generator: Adobe Illustrator 22.1.0, SVG Export Plug-In . SVG Version: 6.00 Build 0)  -->
<svg version="1.1" id="レイヤー_1" xmlns="http://www.w3.org/2000/svg" xmlns:xlink="http://www.w3.org/1999/xlink" x="0px"
	 y="0px" viewBox="0 0 461 356" style="enable-background:new 0 0 461 356;" xml:space="preserve">
<style type="text/css">
	.st0{fill:#CFDDF4;}
	.st1{fill:#4836F6;}
	.st2{fill:#7736F6;}
	.st3{fill:url(#SVGID_1_);}
	.st4{fill:url(#SVGID_2_);}
	.st5{fill:url(#SVGID_3_);}
	.st6{fill:url(#SVGID_4_);}
	.st7{fill:url(#SVGID_5_);}
	.st8{fill:url(#SVGID_6_);}
	.st9{fill:#F577B6;}
	.st10{fill:#FFFFFF;}
	.st11{opacity:0.12;fill:#001D47;}
	.st12{fill:#E0E9F8;}
	.st13{fill:#FF9272;}
	.st14{fill:#CEDFE7;}
	.st15{fill:#C2C9E9;}
	.st16{fill:#A4B5E9;}
	.st17{fill:url(#SVGID_7_);}
	.st18{fill:none;stroke:#8DAEE6;stroke-width:1.5;stroke-linecap:round;stroke-linejoin:round;stroke-miterlimit:10;}
	.st19{fill:none;stroke:#E0E9F8;stroke-width:1.5;stroke-linecap:round;stroke-linejoin:round;stroke-miterlimit:10;}
	.st20{fill:none;stroke:#C2C9E9;stroke-width:1.5;stroke-linecap:round;stroke-linejoin:round;stroke-miterlimit:10;}
	.st21{fill:#001D47;}
	.st22{fill:url(#SVGID_8_);}
	.st23{fill:#FFBCA8;}
	.st24{fill:none;stroke:#7736F6;stroke-width:0.8;stroke-linecap:round;stroke-linejoin:round;stroke-miterlimit:10;}
	.st25{fill:url(#SVGID_9_);}
	.st26{fill:url(#SVGID_10_);}
	.st27{fill:url(#SVGID_11_);}
	.st28{fill:url(#SVGID_12_);}
	.st29{fill:#CFE4E9;}
	.st30{opacity:0.6;fill:#CFE4E9;}
	.st31{opacity:0.35;fill:#CFE4E9;}
	.st32{fill:#042A37;}
	.st33{fill:#3427F6;}
</style>
<path class="st0" d="M426.2,338.3H39.3c-2.1,0-3.8-1.7-3.8-3.8l0,0c0-2.1,1.7-3.8,3.8-3.8h386.8c2.1,0,3.8,1.7,3.8,3.8l0,0
	C430,336.6,428.3,338.3,426.2,338.3z"/>
<g>
	<g>
		<path class="st1" d="M426.7,179.8l-0.7-17.3c5.3,1.5,11,2,16.5,1.1c-0.2,1.2-0.4,2.5-0.7,3.7C434.1,165.6,429.9,172.7,426.7,179.8
			z"/>
		<path class="st2" d="M441.7,167.3c-1.2,5-3.1,9.9-5.7,14.3l-8.6,14.4l-0.7-16.3C429.9,172.7,434.1,165.6,441.7,167.3z"/>
		<g>
			<linearGradient id="SVGID_1_" gradientUnits="userSpaceOnUse" x1="391.8048" y1="52.986" x2="391.8048" y2="24.8622">
				<stop  offset="0" style="stop-color:#FFFFFF;stop-opacity:0.3"/>
				<stop  offset="1" style="stop-color:#FFFFFF"/>
			</linearGradient>
			<path class="st3" d="M460.7,51.3c-3.1-4.3-11.8-15.4-18.7-16.9c-8.6-1.8-10.3,9.9-24.3-4.2c-11.2-11.3-25.7-2.3-36.1,7.6
				c-2.7,2.6-6.8,2.9-9.8,0.7c-6.3-4.6-13.7-7.1-19.7-1c-9.6,9.7-10.7,1.7-16.6,2.9c-4.7,1-10.6,8.6-12.7,11.5
				c-0.4,0.5,0.1,1.2,0.8,1.2h36.6h10.5h13.5h21.7h53.6C460.6,53,461.3,52,460.7,51.3z"/>
			<linearGradient id="SVGID_2_" gradientUnits="userSpaceOnUse" x1="337.6888" y1="19.8025" x2="337.6888" y2="3.251120e-03">
				<stop  offset="0" style="stop-color:#FFFFFF;stop-opacity:0.3"/>
				<stop  offset="1" style="stop-color:#FFFFFF"/>
			</linearGradient>
			<path class="st4" d="M375.4,18.6c-2.2-3.1-8.3-10.9-13.1-11.9c-6-1.3-7.2,7-17-3c-8.7-8.8-20.3,0-27.7,7.6
				c-4.1,2.5-5.2-1.2-8.6-0.5c-3.3,0.7-7.4,6-8.9,8.1c-0.3,0.4,0.1,0.8,0.6,0.8h11.7h14.1h10.6h6.2h31.5
				C375.3,19.8,375.8,19.1,375.4,18.6z"/>
			<linearGradient id="SVGID_3_" gradientUnits="userSpaceOnUse" x1="434.3834" y1="15.6067" x2="434.3834" y2="4.199">
				<stop  offset="0" style="stop-color:#FFFFFF;stop-opacity:0.3"/>
				<stop  offset="1" style="stop-color:#FFFFFF"/>
			</linearGradient>
			<path class="st5" d="M456.1,14.9c-1.3-1.8-4.8-6.3-7.6-6.9c-3.5-0.7-4.2,4-9.8-1.7c-5-5.1-11.7,0-15.9,4.4c-2.4,1.5-3-0.7-5-0.3
				c-1.9,0.4-4.3,3.5-5.2,4.7c-0.2,0.2,0,0.5,0.3,0.5h6.7h8.1h6.1h3.6h18.1C456,15.6,456.3,15.2,456.1,14.9z"/>
		</g>
		<g>
			<linearGradient id="SVGID_4_" gradientUnits="userSpaceOnUse" x1="63.0125" y1="37.9141" x2="63.0125" y2="15.8716">
				<stop  offset="0" style="stop-color:#FFFFFF;stop-opacity:0.3"/>
				<stop  offset="1" style="stop-color:#FFFFFF"/>
			</linearGradient>
			<path class="st6" d="M117,36.6c-2.5-3.4-9.2-12.1-14.6-13.2c-6.7-1.4-8,7.8-19-3.3c-8.8-8.9-20.1-1.8-28.3,5.9
				c-2.1,2-5.4,2.3-7.7,0.6c-5-3.6-10.8-5.5-15.4-0.8c-7.5,7.6-8.4,1.3-13,2.3c-3.7,0.8-8.3,6.7-10,9c-0.3,0.4,0.1,0.9,0.6,0.9h28.7
				h8.2h10.5h17h42C116.9,37.9,117.5,37.2,117,36.6z"/>
			<linearGradient id="SVGID_5_" gradientUnits="userSpaceOnUse" x1="22.7869" y1="16.5747" x2="22.7869" y2="1.0568">
				<stop  offset="0" style="stop-color:#FFFFFF;stop-opacity:0.3"/>
				<stop  offset="1" style="stop-color:#FFFFFF"/>
			</linearGradient>
			<path class="st7" d="M45.5,15.6c-1.7-2.4-6.5-8.5-10.3-9.3c-4.7-1-5.6,5.5-13.4-2.3C15-3,5.9,3.9,0.1,9.9C0.1,10,0,10,0,10v6.6
				h44.8C45.4,16.6,45.8,16,45.5,15.6z"/>
			<linearGradient id="SVGID_6_" gradientUnits="userSpaceOnUse" x1="36.6513" y1="55.6997" x2="36.6513" y2="46.7588">
				<stop  offset="0" style="stop-color:#FFFFFF;stop-opacity:0.3"/>
				<stop  offset="1" style="stop-color:#FFFFFF"/>
			</linearGradient>
			<path class="st8" d="M53.7,55.1c-1-1.4-3.7-4.9-5.9-5.4c-2.7-0.6-3.3,3.2-7.7-1.3c-3.9-4-9.2,0-12.5,3.4
				c-1.8,1.1-2.4-0.5-3.9-0.2c-1.5,0.3-3.4,2.7-4,3.7c-0.1,0.2,0,0.4,0.3,0.4h5.3h6.3h4.8h2.8h14.2C53.6,55.7,53.8,55.4,53.7,55.1z"
				/>
		</g>
		<g>
			<g>
				<path class="st9" d="M413.9,202.3h42.6c1.9,0,3.5-1.6,3.5-3.5v-10c0-1.9-1.6-3.5-3.5-3.5h-42.6c-1.9,0-3.5,1.6-3.5,3.5v10
					C410.4,200.7,411.9,202.3,413.9,202.3z"/>
				<path class="st10" d="M446.9,199.1h7.6c1.2,0,2.1-1,2.1-2.1v-6.2c0-1.2-1-2.1-2.1-2.1h-7.6c-1.2,0-2.1,1-2.1,2.1v6.2
					C444.8,198.2,445.7,199.1,446.9,199.1z"/>
				<g>
					<path class="st11" d="M417.4,190.9h22c0.5,0,0.9,0.4,0.9,0.9s-0.4,0.9-0.9,0.9h-22c-0.5,0-0.9-0.4-0.9-0.9
						S416.9,190.9,417.4,190.9z"/>
					<path class="st11" d="M428.7,194.8h10.7c0.5,0,0.9,0.4,0.9,0.9s-0.4,0.9-0.9,0.9h-10.7c-0.5,0-0.9-0.4-0.9-0.9
						S428.2,194.8,428.7,194.8z"/>
				</g>
			</g>
			<g>
				<path class="st10" d="M413.9,225.9h42.6c1.9,0,3.5-1.6,3.5-3.5v-10c0-1.9-1.6-3.5-3.5-3.5h-42.6c-1.9,0-3.5,1.6-3.5,3.5v10
					C410.4,224.3,411.9,225.9,413.9,225.9z"/>
				<path class="st12" d="M446.9,222.7h7.6c1.2,0,2.1-1,2.1-2.1v-6.2c0-1.2-1-2.1-2.1-2.1h-7.6c-1.2,0-2.1,1-2.1,2.1v6.2
					C444.8,221.8,445.7,222.7,446.9,222.7z"/>
				<g>
					<path class="st11" d="M417.4,214.5h22c0.5,0,0.9,0.4,0.9,0.9s-0.4,0.9-0.9,0.9h-22c-0.5,0-0.9-0.4-0.9-0.9
						S416.9,214.5,417.4,214.5z"/>
					<path class="st11" d="M428.7,218.4h10.7c0.5,0,0.9,0.4,0.9,0.9s-0.4,0.9-0.9,0.9h-10.7c-0.5,0-0.9-0.4-0.9-0.9
						S428.2,218.4,428.7,218.4z"/>
				</g>
			</g>
			<g>
				<path class="st2" d="M413.9,249.4h42.6c1.9,0,3.5-1.6,3.5-3.5v-10c0-1.9-1.6-3.5-3.5-3.5h-42.6c-1.9,0-3.5,1.6-3.5,3.5v10
					C410.4,247.9,411.9,249.4,413.9,249.4z"/>
				<path class="st10" d="M446.9,246.3h7.6c1.2,0,2.1-1,2.1-2.1v-6.2c0-1.2-1-2.1-2.1-2.1h-7.6c-1.2,0-2.1,1-2.1,2.1v6.2
					C444.8,245.3,445.7,246.3,446.9,246.3z"/>
				<g>
					<path class="st11" d="M417.4,238.1h22c0.5,0,0.9,0.4,0.9,0.9s-0.4,0.9-0.9,0.9h-22c-0.5,0-0.9-0.4-0.9-0.9
						S416.9,238.1,417.4,238.1z"/>
					<path class="st11" d="M428.7,242h10.7c0.5,0,0.9,0.4,0.9,0.9s-0.4,0.9-0.9,0.9h-10.7c-0.5,0-0.9-0.4-0.9-0.9
						S428.2,242,428.7,242z"/>
				</g>
			</g>
		</g>
		<path class="st13" d="M66.2,259.4l17.1,12c1.3,0.9,1.8,2.7,1.2,4.2l0,0c-0.8,1.9-3,2.7-4.9,1.7l-16.6-9L66.2,259.4z"/>
		<path class="st14" d="M422,326.5H78c-4.4,0-8-3.6-8-8V89.8c0-4.4,3.6-8,8-8h344c4.4,0,8,3.6,8,8v228.7
			C430,322.9,426.4,326.5,422,326.5z"/>
		<g>
			<path class="st10" d="M414.6,224.8h-62.4c-1.5,0-2.8-1.2-2.8-2.8v-40c0-1.5,1.2-2.8,2.8-2.8h62.4c1.5,0,2.8,1.2,2.8,2.8v40
				C417.4,223.6,416.1,224.8,414.6,224.8z"/>
			<path class="st12" d="M410.1,217.7h-53.3c-0.9,0-1.7-0.7-1.7-1.7v-11.3c0-0.9,0.7-1.7,1.7-1.7h53.3c0.9,0,1.7,0.7,1.7,1.7v11.3
				C411.7,217,411,217.7,410.1,217.7z"/>
			<g>
				<g>
					<g>
						<path class="st15" d="M403,184.2c0.7,0,1.2,0.5,1.2,1.2s-0.5,1.2-1.2,1.2c-0.7,0-1.2-0.5-1.2-1.2S402.3,184.2,403,184.2z"/>
					</g>
					<g>
						<path class="st15" d="M407.4,184.2c0.7,0,1.2,0.5,1.2,1.2s-0.5,1.2-1.2,1.2s-1.2-0.5-1.2-1.2S406.7,184.2,407.4,184.2z"/>
					</g>
					<g>
						<path class="st15" d="M411.7,184.2c0.7,0,1.2,0.5,1.2,1.2s-0.5,1.2-1.2,1.2c-0.7,0-1.2-0.5-1.2-1.2S411.1,184.2,411.7,184.2z"
							/>
					</g>
				</g>
			</g>
			<g>
				<circle class="st16" cx="360" cy="193.7" r="4.5"/>
				<path class="st12" d="M410.7,196.5h-40.9c-0.4,0-0.7-0.3-0.7-0.7v-4.3c0-0.4,0.3-0.7,0.7-0.7h40.9c0.4,0,0.7,0.3,0.7,0.7v4.3
					C411.4,196.2,411.1,196.5,410.7,196.5z"/>
			</g>
		</g>
		<path class="st2" d="M430,101.8v-12c0-4.4-3.6-8-8-8H78c-4.4,0-8,3.6-8,8v12H430z"/>
		<linearGradient id="SVGID_7_" gradientUnits="userSpaceOnUse" x1="70" y1="148.7992" x2="430" y2="148.7992">
			<stop  offset="0" style="stop-color:#F577B6"/>
			<stop  offset="1" style="stop-color:#FF8262"/>
		</linearGradient>
		<rect x="70" y="128.3" class="st17" width="360" height="41"/>
		<path class="st10" d="M400.5,123.3H101.6c-2.2,0-4-1.8-4-4v-8.4c0-2.2,1.8-4,4-4h298.9c2.2,0,4,1.8,4,4v8.4
			C404.5,121.5,402.7,123.3,400.5,123.3z"/>
		<g>
			<line class="st18" x1="423.9" y1="110.1" x2="410.8" y2="110.1"/>
			<line class="st18" x1="423.9" y1="115.1" x2="410.8" y2="115.1"/>
			<line class="st18" x1="423.9" y1="120.1" x2="410.8" y2="120.1"/>
		</g>
		<path class="st18" d="M82.9,108.6L77,113c-0.2,0.2-0.3,0.6-0.3,0.9v7.2c0,0.5,0.4,0.9,0.9,0.9H81c0.5,0,0.9-0.4,0.9-0.9v-4.6
			c0-1,0.7-1.9,1.6-2c1.2-0.2,2.2,0.7,2.2,1.9v4.7c0,0.5,0.4,0.9,0.9,0.9H90c0.5,0,0.9-0.4,0.9-0.9v-7.2c0-0.3-0.1-0.6-0.3-0.9
			l-5.9-4.4C84.2,108.2,83.4,108.2,82.9,108.6z"/>
		<g>
			<g>
				<circle class="st19" cx="106" cy="114.8" r="4"/>
				<line class="st19" x1="109.9" y1="119.4" x2="108.6" y2="117.9"/>
			</g>
		</g>
		<g>
			<path class="st10" d="M339.2,156.8H160.8c-1.2,0-2.2-1-2.2-2.2V143c0-1.2,1-2.2,2.2-2.2h178.5c1.2,0,2.2,1,2.2,2.2v11.5
				C341.5,155.8,340.5,156.8,339.2,156.8z"/>
			<path class="st12" d="M339.2,140.8H324v16h15.2c1.2,0,2.2-1,2.2-2.2V143C341.5,141.8,340.5,140.8,339.2,140.8z"/>
			<g>
				<g>
					<circle class="st20" cx="332.8" cy="148.5" r="3.4"/>
					<line class="st20" x1="336.1" y1="152.5" x2="334.9" y2="151.2"/>
				</g>
			</g>
		</g>
		<circle class="st2" cx="86.4" cy="185.4" r="4.5"/>
		<path class="st10" d="M414.6,314h-62.4c-1.5,0-2.8-1.2-2.8-2.8v-75.2c0-1.5,1.2-2.8,2.8-2.8h62.4c1.5,0,2.8,1.2,2.8,2.8v75.2
			C417.4,312.7,416.1,314,414.6,314z"/>
		<path class="st16" d="M131.8,188.1H96.2c-0.4,0-0.7-0.3-0.7-0.7v-4.3c0-0.4,0.3-0.7,0.7-0.7h35.7c0.4,0,0.7,0.3,0.7,0.7v4.3
			C132.5,187.8,132.2,188.1,131.8,188.1z"/>
		<path class="st12" d="M168.2,117.9h-48.5c-0.4,0-0.7-0.3-0.7-0.7v-4.3c0-0.4,0.3-0.7,0.7-0.7h48.5c0.4,0,0.7,0.3,0.7,0.7v4.3
			C168.9,117.6,168.6,117.9,168.2,117.9z"/>
		<circle class="st16" cx="86.4" cy="198.6" r="4.5"/>
		<path class="st16" d="M131.8,201.4H96.2c-0.4,0-0.7-0.3-0.7-0.7v-4.3c0-0.4,0.3-0.7,0.7-0.7h35.7c0.4,0,0.7,0.3,0.7,0.7v4.3
			C132.5,201.1,132.2,201.4,131.8,201.4z"/>
		<path class="st9" d="M106.5,214.6h-24c-0.4,0-0.7-0.3-0.7-0.7v-1.5c0-0.4,0.3-0.7,0.7-0.7h24c0.4,0,0.7,0.3,0.7,0.7v1.5
			C107.2,214.3,106.9,214.6,106.5,214.6z"/>
		<circle class="st10" cx="86.4" cy="225.1" r="4.5"/>
		<path class="st16" d="M131.8,227.9H96.2c-0.4,0-0.7-0.3-0.7-0.7v-4.3c0-0.4,0.3-0.7,0.7-0.7h35.7c0.4,0,0.7,0.3,0.7,0.7v4.3
			C132.5,227.6,132.2,227.9,131.8,227.9z"/>
		<circle class="st16" cx="86.4" cy="238.4" r="4.5"/>
		<path class="st16" d="M131.8,241.1H96.2c-0.4,0-0.7-0.3-0.7-0.7v-4.3c0-0.4,0.3-0.7,0.7-0.7h35.7c0.4,0,0.7,0.3,0.7,0.7v4.3
			C132.5,240.8,132.2,241.1,131.8,241.1z"/>
		<circle class="st16" cx="86.4" cy="251.6" r="4.5"/>
		<path class="st16" d="M131.8,254.4H96.2c-0.4,0-0.7-0.3-0.7-0.7v-4.3c0-0.4,0.3-0.7,0.7-0.7h35.7c0.4,0,0.7,0.3,0.7,0.7v4.3
			C132.5,254.1,132.2,254.4,131.8,254.4z"/>
		<circle class="st10" cx="86.4" cy="264.9" r="4.5"/>
		<path class="st16" d="M131.8,267.6H96.2c-0.4,0-0.7-0.3-0.7-0.7v-4.3c0-0.4,0.3-0.7,0.7-0.7h35.7c0.4,0,0.7,0.3,0.7,0.7v4.3
			C132.5,267.3,132.2,267.6,131.8,267.6z"/>
		<path class="st9" d="M106.5,280.9h-24c-0.4,0-0.7-0.3-0.7-0.7v-1.5c0-0.4,0.3-0.7,0.7-0.7h24c0.4,0,0.7,0.3,0.7,0.7v1.5
			C107.2,280.6,106.9,280.9,106.5,280.9z"/>
		<circle class="st16" cx="86.4" cy="291.4" r="4.5"/>
		<path class="st16" d="M131.8,294.1H96.2c-0.4,0-0.7-0.3-0.7-0.7v-4.3c0-0.4,0.3-0.7,0.7-0.7h35.7c0.4,0,0.7,0.3,0.7,0.7v4.3
			C132.5,293.8,132.2,294.1,131.8,294.1z"/>
		<circle class="st10" cx="86.4" cy="304.6" r="4.5"/>
		<path class="st16" d="M131.8,307.4H96.2c-0.4,0-0.7-0.3-0.7-0.7v-4.3c0-0.4,0.3-0.7,0.7-0.7h35.7c0.4,0,0.7,0.3,0.7,0.7v4.3
			C132.5,307.1,132.2,307.4,131.8,307.4z"/>
		<g>
			<path class="st10" d="M340.2,242.8H146.8c-1.5,0-2.8-1.2-2.8-2.8v-58c0-1.5,1.2-2.8,2.8-2.8h193.5c1.5,0,2.8,1.2,2.8,2.8v58
				C343,241.6,341.8,242.8,340.2,242.8z"/>
			<path class="st12" d="M199.3,191h-48.5c-0.4,0-0.7-0.3-0.7-0.7V186c0-0.4,0.3-0.7,0.7-0.7h48.5c0.4,0,0.7,0.3,0.7,0.7v4.3
				C200,190.7,199.7,191,199.3,191z"/>
			<path class="st12" d="M335.3,236.7H150.8c-0.4,0-0.7-0.3-0.7-0.7v-4.3c0-0.4,0.3-0.7,0.7-0.7h184.5c0.4,0,0.7,0.3,0.7,0.7v4.3
				C336,236.4,335.7,236.7,335.3,236.7z"/>
			<path class="st12" d="M255.3,191h-48.5c-0.4,0-0.7-0.3-0.7-0.7V186c0-0.4,0.3-0.7,0.7-0.7h48.5c0.4,0,0.7,0.3,0.7,0.7v4.3
				C256,190.7,255.7,191,255.3,191z"/>
			<path class="st12" d="M311.3,191h-48.5c-0.4,0-0.7-0.3-0.7-0.7V186c0-0.4,0.3-0.7,0.7-0.7h48.5c0.4,0,0.7,0.3,0.7,0.7v4.3
				C312,190.7,311.7,191,311.3,191z"/>
			<path class="st14" d="M310.7,222.2H151.5c-0.7,0-1.3-0.6-1.3-1.3v-17.6c0-0.7,0.6-1.3,1.3-1.3h159.2c0.7,0,1.3,0.6,1.3,1.3v17.6
				C312,221.6,311.4,222.2,310.7,222.2z"/>
		</g>
		<g>
			<path class="st10" d="M340.2,314H146.8c-1.5,0-2.8-1.2-2.8-2.8v-58c0-1.5,1.2-2.8,2.8-2.8h193.5c1.5,0,2.8,1.2,2.8,2.8v58
				C343,312.7,341.8,314,340.2,314z"/>
			<path class="st12" d="M199.3,262.1h-48.5c-0.4,0-0.7-0.3-0.7-0.7v-4.3c0-0.4,0.3-0.7,0.7-0.7h48.5c0.4,0,0.7,0.3,0.7,0.7v4.3
				C200,261.8,199.7,262.1,199.3,262.1z"/>
			<path class="st12" d="M335.3,307.9H150.8c-0.4,0-0.7-0.3-0.7-0.7v-4.3c0-0.4,0.3-0.7,0.7-0.7h184.5c0.4,0,0.7,0.3,0.7,0.7v4.3
				C336,307.6,335.7,307.9,335.3,307.9z"/>
			<path class="st12" d="M255.3,262.1h-48.5c-0.4,0-0.7-0.3-0.7-0.7v-4.3c0-0.4,0.3-0.7,0.7-0.7h48.5c0.4,0,0.7,0.3,0.7,0.7v4.3
				C256,261.8,255.7,262.1,255.3,262.1z"/>
			<path class="st12" d="M311.3,262.1h-48.5c-0.4,0-0.7-0.3-0.7-0.7v-4.3c0-0.4,0.3-0.7,0.7-0.7h48.5c0.4,0,0.7,0.3,0.7,0.7v4.3
				C312,261.8,311.7,262.1,311.3,262.1z"/>
			<path class="st14" d="M310.7,293.4H151.5c-0.7,0-1.3-0.6-1.3-1.3v-17.6c0-0.7,0.6-1.3,1.3-1.3h159.2c0.7,0,1.3,0.6,1.3,1.3v17.6
				C312,292.8,311.4,293.4,310.7,293.4z"/>
		</g>
		<path class="st12" d="M397.2,241.1h14.4c0.8,0,1.4-0.6,1.4-1.4l0,0c0-0.8-0.6-1.4-1.4-1.4h-14.4c-0.8,0-1.4,0.6-1.4,1.4l0,0
			C395.7,240.5,396.4,241.1,397.2,241.1z"/>
		<g>
			<circle class="st2" cx="362.6" cy="252.8" r="4.5"/>
			<path class="st12" d="M408.1,255.6h-35.7c-0.4,0-0.7-0.3-0.7-0.7v-4.3c0-0.4,0.3-0.7,0.7-0.7h35.7c0.4,0,0.7,0.3,0.7,0.7v4.3
				C408.8,255.3,408.5,255.6,408.1,255.6z"/>
			<path class="st16" d="M408.1,268.8h-49.3c-0.4,0-0.7-0.3-0.7-0.7v-4.3c0-0.4,0.3-0.7,0.7-0.7h49.3c0.4,0,0.7,0.3,0.7,0.7v4.3
				C408.8,268.5,408.5,268.8,408.1,268.8z"/>
		</g>
		<g>
			<circle class="st2" cx="362.6" cy="288.4" r="4.5"/>
			<path class="st12" d="M408.1,291.1h-35.7c-0.4,0-0.7-0.3-0.7-0.7v-4.3c0-0.4,0.3-0.7,0.7-0.7h35.7c0.4,0,0.7,0.3,0.7,0.7v4.3
				C408.8,290.8,408.5,291.1,408.1,291.1z"/>
			<path class="st16" d="M408.1,304.4h-49.3c-0.4,0-0.7-0.3-0.7-0.7v-4.3c0-0.4,0.3-0.7,0.7-0.7h49.3c0.4,0,0.7,0.3,0.7,0.7v4.3
				C408.8,304.1,408.5,304.4,408.1,304.4z"/>
		</g>
		<path class="st14" d="M395.6,110.4l1,2c0.2,0.5,0.7,0.8,1.2,0.9l2.2,0.3c0.4,0.1,0.5,0.5,0.3,0.8l-1.6,1.6
			c-0.4,0.4-0.5,0.9-0.5,1.4l0.4,2.2c0.1,0.4-0.3,0.7-0.7,0.5l-2-1c-0.5-0.2-1-0.2-1.5,0l-2,1c-0.3,0.2-0.8-0.1-0.7-0.5l0.4-2.2
			c0.1-0.5-0.1-1-0.5-1.4l-1.6-1.6c-0.3-0.3-0.1-0.8,0.3-0.8l2.2-0.3c0.5-0.1,1-0.4,1.2-0.9l1-2C394.9,110,395.4,110,395.6,110.4z"
			/>
		<g>
			<path class="st21" d="M383.8,333.3l-2.1,1.8c-0.4,0.3-0.2,1,0.4,1h8.2c1.1,0,2.1-0.9,2.2-2l0.1-1c-2.9,0-5.8,0-8.8,0L383.8,333.3
				z"/>
			<path class="st21" d="M399.1,333l0,0.6l-1.7,1.7c-0.3,0.3-0.1,0.8,0.3,0.8h8.8c1.2,0,2.2-1,2.2-2.3l0-0.8
				C405.5,333,402.3,333,399.1,333z"/>
			<linearGradient id="SVGID_8_" gradientUnits="userSpaceOnUse" x1="396.2649" y1="328.2214" x2="396.2649" y2="285.069">
				<stop  offset="0" style="stop-color:#F577B6"/>
				<stop  offset="1" style="stop-color:#FF8262"/>
			</linearGradient>
			<path class="st22" d="M406.9,278.3c-7.4,1.2-14.7,1.5-22.1,0.8l-1.1,53.8c2.9,0,5.8,0,8.8,0l3.8-47.5l2.8,47.5c3.2,0,6.5,0,9.7,0
				L406.9,278.3z"/>
			<path class="st23" d="M368.1,221.5c-0.5-1.1-1.8-1.7-3-1.4c-1.5,0.4-2.4,1.9-1.9,3.4l2.4,6.8c2-0.6,4-1.4,5.9-1.5L368.1,221.5z"
				/>
			<path class="st23" d="M392.7,237.3l1.4-6.4c0.6-2.6,3.2-4.1,5.7-3.4l0,0c2.4,0.7,3.8,3.1,3.2,5.5l-1.7,6.4
				c-0.6,2.4-3.1,3.8-5.5,3.1v0C393.5,241.8,392.2,239.6,392.7,237.3z"/>
			<g>
				<path class="st24" d="M395,233.2c-0.2,0.7-0.7,1.3-1.2,1.1c-0.5-0.1-0.7-0.8-0.5-1.6s0.7-1.3,1.2-1.1S395.2,232.5,395,233.2z"/>
				<path class="st24" d="M395,233.2c0,0,2.8,0.3,3.2,0.6c0.4,0.3,0.1,1.1,0.1,1.1"/>
			</g>
			<path class="st21" d="M417.3,266.7c0.1-2.3-0.3-4.6-1.2-6.8l-6.1-13.8c-1.5-3.7-4.9-6.3-8.9-6.9l-13-1.7l-11.7-0.9
				c-0.7-0.1-1.4-0.5-1.7-1.2l-3.2-6.6c-2,0.2-4,0.9-5.9,1.5l3.2,9.2c0.6,1.8,2,3.1,3.8,3.7l12.7,3.8l-0.6,32.2
				c7.4,0.6,14.7,0.3,22.1-0.8l-0.7-21.6l4.5,7.4l0.6,8.9c1.9,0,3.8,0,5.7,0L417.3,266.7z"/>
			<path class="st23" d="M411.3,273l0.6,9.1c0,1.1,0.7,2.1,1.8,2.3c1.3,0.3,2.6-0.6,2.8-2l0.5-9.5C415.1,273,413.2,273,411.3,273z"
				/>
		</g>
		<path class="st23" d="M164.7,89.7c-2.1,1.3-4.3,2.4-6.6,3.3l2.6,5.3l-4.8,10.9c-0.7,1.6,0,3.5,1.7,4.1c1.5,0.6,3.3-0.1,4-1.6
			l4.9-10.7c1.1-2.4,1.1-5.2,0-7.7L164.7,89.7z"/>
		<path class="st23" d="M123.9,91.6l-0.4,3.3c-0.4,2.9,0.6,5.7,2.6,7.7l10.4,10.3c0.9,0.9,2.4,1,3.4,0.3l0,0
			c1.2-0.9,1.4-2.6,0.5-3.8l-9.1-12.1l1.1-4C129.4,93.2,126.6,92.6,123.9,91.6z"/>
		<path class="st21" d="M162,83.7c-2.1-4.6-6.4-7.9-11.5-8.7l-9.4-1.5c-5.9-0.9-11.7,1.9-14.6,7c-1,1.7-1.6,3.6-1.8,5.5l-0.7,5.5
			c2.7,1,5.6,1.6,8.5,1.6l0.2-0.8c0.7-2.6,3-4.5,5.8-4.7l12.2-0.8c2.6-0.2,5.1,1.3,6.2,3.6L158,93c2.3-0.9,4.6-2,6.6-3.3L162,83.7z"
			/>
		<path class="st23" d="M140.2,86.8l0.6-4.7c0.3-2.5,2.5-4.3,5-4.2h0c2.7,0.2,4.8,2.6,4.5,5.3l-0.5,4.7c-0.3,2.9-3.1,4.9-6,4.1
			l-0.1,0C141.5,91.4,140,89.1,140.2,86.8z"/>
		<g>
			<g>
				<g>
					<linearGradient id="SVGID_9_" gradientUnits="userSpaceOnUse" x1="289.7918" y1="348.1157" x2="207.2637" y2="348.1157">
						<stop  offset="0" style="stop-color:#FFFFFF;stop-opacity:0.3"/>
						<stop  offset="1" style="stop-color:#FFFFFF"/>
					</linearGradient>
					<path class="st25" d="M242.8,352.2c0.7-0.8,1.5-1.5,2.2-2.3c0.1-0.1,0.3-0.3,0.4-0.4c1.3-2.4,3.6-4.9,5.3-6.8
						c0.8-1,1.7-1.9,2.7-2.7h-37.7c-1.6,0-3.2,0.3-3.5,0.7l-13.3,14.3c-0.7,0.8,0.6,1.4,2.8,1.4h37.7
						C240.4,354.8,241.6,353.4,242.8,352.2z"/>
				</g>
				<g>
					<path class="st12" d="M242.8,352.2c0.7-0.8,1.5-1.5,2.2-2.3c0.1-0.1,0.3-0.3,0.4-0.4c0.4-0.8,1-1.6,1.6-2.4h-31.8
						c-1.1,0-2.3,0.3-2.5,0.6l-3.5,4.5c-0.3,0.4,0.5,0.7,1.8,0.7h31.2C242.3,352.6,242.6,352.4,242.8,352.2z"/>
					<g>
						<path class="st16" d="M226.4,343.9c-0.4,0.8-3.2,1.4-6.2,1.4c-3,0-4.9-0.7-4.3-1.4c0.6-0.8,3.3-1.3,6.1-1.3
							C224.9,342.6,226.8,343.2,226.4,343.9z"/>
						<path class="st12" d="M250.3,343.1h-17.3c-0.4,0-0.8,0.1-0.8,0.2l-0.5,1.3c0,0.1,0.3,0.2,0.7,0.2h16.5
							C249.3,344.2,249.8,343.6,250.3,343.1z"/>
					</g>
				</g>
			</g>
			<g>
				<g>
					<linearGradient id="SVGID_10_" gradientUnits="userSpaceOnUse" x1="326.9773" y1="348.1158" x2="244.449" y2="348.1158">
						<stop  offset="0" style="stop-color:#FFFFFF;stop-opacity:0.3"/>
						<stop  offset="1" style="stop-color:#FFFFFF"/>
					</linearGradient>
					<path class="st26" d="M332.3,356.3h-93.4c-2.3,0-3.5-0.6-2.8-1.4l13.3-14.3c0.4-0.4,1.9-0.7,3.5-0.7h65.5
						c1.6,0,3.2,0.3,3.5,0.7l13.3,14.3C335.8,355.7,334.5,356.3,332.3,356.3z"/>
				</g>
				<g>
					<path class="st12" d="M323,352.9h-74.9c-1.3,0-2.1-0.3-1.8-0.7l3.5-4.5c0.3-0.3,1.4-0.6,2.5-0.6h66.4c1.1,0,2.3,0.3,2.5,0.6
						l3.5,4.5C325.1,352.6,324.3,352.9,323,352.9z"/>
					<g>
						<g>
							<g>
								<path class="st15" d="M306.8,341.2c0.7,0,1.4,0.1,1.5,0.3c0.1,0.2-0.4,0.3-1.1,0.3s-1.4-0.1-1.5-0.3
									C305.6,341.4,306.1,341.2,306.8,341.2z"/>
							</g>
							<g>
								<path class="st15" d="M311.5,341.2c0.7,0,1.4,0.1,1.5,0.3c0.1,0.2-0.4,0.3-1.1,0.3c-0.7,0-1.4-0.1-1.5-0.3
									C310.3,341.4,310.8,341.2,311.5,341.2z"/>
							</g>
							<g>
								<path class="st15" d="M316.3,341.2c0.7,0,1.4,0.1,1.6,0.3c0.1,0.2-0.3,0.3-1.1,0.3c-0.7,0-1.4-0.1-1.6-0.3
									C315.1,341.4,315.5,341.2,316.3,341.2z"/>
							</g>
						</g>
					</g>
					<g>
						<path class="st16" d="M263.6,343.9c-0.4,0.8-3.2,1.4-6.2,1.4c-3,0-4.9-0.7-4.3-1.4c0.6-0.8,3.3-1.3,6.1-1.3
							C262.1,342.6,264,343.2,263.6,343.9z"/>
						<path class="st12" d="M317.8,344.8h-48.4c-0.4,0-0.8-0.1-0.7-0.2l0.5-1.3c0-0.1,0.4-0.2,0.8-0.2h46.4c0.4,0,0.8,0.1,0.9,0.2
							l1,1.3C318.5,344.7,318.3,344.8,317.8,344.8z"/>
					</g>
				</g>
			</g>
			<g>
				<g>
					<path class="st10" d="M377.4,356.3h-93.4c-2.3,0-3.5-0.6-2.8-1.4l13.3-14.3c0.4-0.4,1.9-0.7,3.5-0.7h65.5
						c1.6,0,3.2,0.3,3.5,0.7l13.3,14.3C380.9,355.7,379.6,356.3,377.4,356.3z"/>
				</g>
				<g>
					<path class="st12" d="M368.1,352.9h-74.9c-1.3,0-2.1-0.3-1.8-0.7l3.5-4.5c0.3-0.3,1.4-0.6,2.5-0.6h66.4c1.1,0,2.3,0.3,2.5,0.6
						l3.5,4.5C370.1,352.6,369.4,352.9,368.1,352.9z"/>
					<g>
						<g>
							<g>
								<path class="st15" d="M351.9,341.2c0.7,0,1.4,0.1,1.5,0.3c0.1,0.2-0.4,0.3-1.1,0.3c-0.7,0-1.4-0.1-1.5-0.3
									C350.6,341.4,351.2,341.2,351.9,341.2z"/>
							</g>
							<g>
								<path class="st15" d="M356.6,341.2c0.7,0,1.4,0.1,1.5,0.3c0.1,0.2-0.4,0.3-1.1,0.3c-0.7,0-1.4-0.1-1.5-0.3
									C355.4,341.4,355.9,341.2,356.6,341.2z"/>
							</g>
							<g>
								<path class="st15" d="M361.3,341.2c0.7,0,1.4,0.1,1.6,0.3c0.1,0.2-0.3,0.3-1.1,0.3c-0.7,0-1.4-0.1-1.6-0.3
									C360.2,341.4,360.6,341.2,361.3,341.2z"/>
							</g>
						</g>
					</g>
					<g>
						<path class="st16" d="M308.7,343.9c-0.4,0.8-3.2,1.4-6.2,1.4c-3,0-4.9-0.7-4.3-1.4c0.6-0.8,3.3-1.3,6.1-1.3
							S309.1,343.2,308.7,343.9z"/>
						<path class="st12" d="M362.9,344.8h-48.4c-0.4,0-0.8-0.1-0.7-0.2l0.5-1.3c0-0.1,0.4-0.2,0.8-0.2h46.4c0.4,0,0.8,0.1,0.9,0.2
							l1,1.3C363.6,344.7,363.3,344.8,362.9,344.8z"/>
					</g>
				</g>
			</g>
		</g>
		<g>
			<g>
				<linearGradient id="SVGID_11_" gradientUnits="userSpaceOnUse" x1="205.0613" y1="76.0003" x2="205.0613" y2="59.6253">
					<stop  offset="0" style="stop-color:#FFFFFF;stop-opacity:0.3"/>
					<stop  offset="1" style="stop-color:#FFFFFF"/>
				</linearGradient>
				<path class="st27" d="M243.3,76h-76.4c-2.2,0-4-1.8-4-4v-8.4c0-2.2,1.8-4,4-4h76.4c2.2,0,4,1.8,4,4V72
					C247.3,74.2,245.5,76,243.3,76z"/>
				<path class="st12" d="M174.8,70.6c0.7-0.8,1.2-1.9,1.2-3.1c0-2.6-2.1-4.8-4.8-4.8c-2.6,0-4.8,2.1-4.8,4.8c0,2.6,2.1,4.8,4.8,4.8
					c0.9,0,1.7-0.3,2.4-0.7l0.9,1.1c0.1,0.2,0.4,0.3,0.6,0.3c0.2,0,0.3-0.1,0.5-0.2c0.3-0.3,0.3-0.7,0.1-1.1L174.8,70.6z M168,67.5
					c0-1.8,1.5-3.3,3.3-3.3c1.8,0,3.3,1.5,3.3,3.3c0,1.8-1.5,3.3-3.3,3.3C169.4,70.8,168,69.3,168,67.5z"/>
				<path class="st12" d="M233.5,70.6H185c-0.4,0-0.7-0.3-0.7-0.7v-4.3c0-0.4,0.3-0.7,0.7-0.7h48.5c0.4,0,0.7,0.3,0.7,0.7V70
					C234.1,70.3,233.8,70.6,233.5,70.6z"/>
			</g>
			<g>
				<linearGradient id="SVGID_12_" gradientUnits="userSpaceOnUse" x1="190.4884" y1="61.9912" x2="190.4884" y2="45.6162">
					<stop  offset="0" style="stop-color:#FFFFFF;stop-opacity:0.3"/>
					<stop  offset="1" style="stop-color:#FFFFFF"/>
				</linearGradient>
				<path class="st28" d="M228.7,62h-76.4c-2.2,0-4-1.8-4-4v-8.4c0-2.2,1.8-4,4-4h76.4c2.2,0,4,1.8,4,4V58
					C232.7,60.2,230.9,62,228.7,62z"/>
				<path class="st12" d="M160.2,56.6c0.7-0.8,1.2-1.9,1.2-3.1c0-2.6-2.1-4.8-4.8-4.8c-2.6,0-4.8,2.1-4.8,4.8c0,2.6,2.1,4.8,4.8,4.8
					c0.9,0,1.7-0.3,2.4-0.7l0.9,1.1c0.1,0.2,0.4,0.3,0.6,0.3c0.2,0,0.3-0.1,0.5-0.2c0.3-0.3,0.3-0.7,0.1-1.1L160.2,56.6z
					 M153.4,53.5c0-1.8,1.5-3.3,3.3-3.3c1.8,0,3.3,1.5,3.3,3.3c0,1.8-1.5,3.3-3.3,3.3C154.9,56.8,153.4,55.3,153.4,53.5z"/>
				<path class="st12" d="M218.9,56.6h-48.5c-0.4,0-0.7-0.3-0.7-0.7v-4.3c0-0.4,0.3-0.7,0.7-0.7h48.5c0.4,0,0.7,0.3,0.7,0.7V56
					C219.6,56.3,219.3,56.6,218.9,56.6z"/>
			</g>
			<g>
				<path class="st10" d="M256.3,90.2h-76.4c-2.2,0-4-1.8-4-4v-8.4c0-2.2,1.8-4,4-4h76.4c2.2,0,4,1.8,4,4v8.4
					C260.3,88.4,258.5,90.2,256.3,90.2z"/>
				<g>
					<g>
						<path class="st12" d="M184.3,86.5c-2.6,0-4.8-2.1-4.8-4.8c0-2.6,2.1-4.8,4.8-4.8c2.6,0,4.8,2.1,4.8,4.8
							C189,84.3,186.9,86.5,184.3,86.5z M184.3,78.4c-1.8,0-3.3,1.5-3.3,3.3c0,1.8,1.5,3.3,3.3,3.3c1.8,0,3.3-1.5,3.3-3.3
							C187.5,79.9,186.1,78.4,184.3,78.4z"/>
						<path class="st12" d="M188.2,87.1c-0.2,0-0.4-0.1-0.6-0.3l-1.3-1.6c-0.3-0.3-0.2-0.8,0.1-1.1c0.3-0.3,0.8-0.2,1.1,0.1l1.3,1.6
							c0.3,0.3,0.2,0.8-0.1,1.1C188.5,87,188.3,87.1,188.2,87.1z"/>
					</g>
				</g>
				<path class="st12" d="M246.5,84.8H198c-0.4,0-0.7-0.3-0.7-0.7v-4.3c0-0.4,0.3-0.7,0.7-0.7h48.5c0.4,0,0.7,0.3,0.7,0.7v4.3
					C247.1,84.5,246.8,84.8,246.5,84.8z"/>
			</g>
		</g>
		<g>
			<circle class="st29" cx="111.6" cy="350" r="5.6"/>
			<path class="st30" d="M128.1,344.4c3.1,0,5.6,2.5,5.6,5.6s-2.5,5.6-5.6,5.6s-5.6-2.5-5.6-5.6S125,344.4,128.1,344.4z"/>
			<path class="st31" d="M144.6,344.4c3.1,0,5.6,2.5,5.6,5.6s-2.5,5.6-5.6,5.6s-5.6-2.5-5.6-5.6S141.5,344.4,144.6,344.4z"/>
		</g>
		<g>
			<path class="st14" d="M425.9,162.5l-0.1-3.4l17.2-6.6v3.5c0,2.6-0.2,5.1-0.6,7.7C436.9,164.5,431.3,164,425.9,162.5z"/>
			<path class="st10" d="M429.9,150.1L429.9,150.1l-0.1-21.9l7.7,1.3c4,0.7,7.3,3.6,8.4,7.5l2.1,10.7c0.8,2.7-0.7,5.6-3.3,6.5
				l-9.3,4.7C432.6,156.7,430.8,153.4,429.9,150.1z"/>
			<path class="st23" d="M420.3,157.7l9.5-7.6c0.9,3.3,2.7,6.6,5.5,8.7l-12.2,6.2c-2.1,0.7-4.5-0.5-5-2.7
				C417.7,160.4,418.6,158.5,420.3,157.7z"/>
			<path class="st23" d="M437,132.5l-0.6-4.8c-0.3-2.6-2.6-4.5-5.2-4.3l0,0c-2.8,0.2-4.9,2.6-4.6,5.4l0.5,4.8c0.3,3,3.2,5,6.1,4.3
				l0.1,0C435.7,137.3,437.3,135,437,132.5z"/>
			<path class="st32" d="M436.9,131.8c0,0-2.3-1.3-2.5-4.4c0,0-4.9,1.9-7.8,0.7c-2.9-1.2-2.4-4.7-0.4-5.6c2.4-1.2,3.6,0.9,3.6,0.9
				s3.1-1,5.6,1.3C437.9,127.1,436.9,131.8,436.9,131.8z"/>
			<path class="st14" d="M429.9,150.1l7.5-5.3c0.5-0.3,0.1-1.1-0.5-0.9l-7.1,2.1L429.9,150.1z"/>
		</g>
		<g>
			<g>
				<path class="st13" d="M52.3,305.4c0.5-1.2,0.6-2.6,0.2-3.9L48,287.6c0,0-2.7-7.9-2.7-9c0,0,18.9,4.4,19,5.8l0.6,8.6
					c0.3,4.6-1.2,10.5-3.7,15.6l-9.7,21.1c-0.1,0.2-0.1,0.4,0,0.5c-3.4,0-6.5,0-9.9,0L52.3,305.4z"/>
				<path class="st21" d="M41.5,330.3c3.4,0,6.5,0,9.9,0c0,0.1,0.1,0.2,0.1,0.3l2.1,2.5c0.6,0.7-0.5,2-1.6,2l-10.4,0.1
					c-1.3,0-1.9-1-1.4-2.2L41.5,330.3z"/>
				<path class="st23" d="M63.5,238.6l1.5-4.7c0.7-2.1,2.9-3.4,5.1-2.8l0.5,0.1c2.4,0.6,3.7,3.1,3,5.4l-1.5,4.9
					c-0.8,2.5-3.6,3.7-5.9,2.6l-0.6-0.3C63.8,242.9,62.8,240.7,63.5,238.6z"/>
				<path class="st23" d="M73.7,244.8c1.1,1.1,2,2.4,2.9,3.7l4.5,6.8c0,0,9.9-10.6,11.7-10.9s4.4,2,3.6,3.9
					c-0.6,1.5-6,9.3-12.3,15.6c-1.6,1.6-4,1.8-5.8,0.5l-7.5-9.2l-1.1,1.8C68.9,252.4,70.1,247,73.7,244.8z"/>
				<path class="st21" d="M74.4,330.3l3.3,2.5c0.8,0.7,0.4,2-0.7,2L66.6,335c-1.3,0-2.3-1-2.4-2.2l0.1-2.5
					C67.7,330.3,71.1,330.3,74.4,330.3C74.4,330.3,74.4,330.3,74.4,330.3z"/>
				<path class="st23" d="M63.7,303.3l-11.3-14.7c4.6-1.1,9.3-2.4,13.8-4.1c2.2,4,4.8,8.5,4.8,8.5c2.4,4.5,3.5,10.4,3.3,15.5
					l-0.2,21c0,0.3,0.2,0.6,0.4,0.8c-3.2,0-6.7,0-10.1,0l0.5-23.4C64.8,305.6,64.4,304.3,63.7,303.3z"/>
				<path class="st2" d="M64.5,239.7c0.6,0,3,0.5,4.9,1.6c1.6,0.9,3,2.1,4.3,3.5c-3.6,2.2-4.8,7.5-4,12.2l-0.7,1
					c-1.8,2.8-3.2,5.8-4.2,8.9c-5.1-0.4-9.8-2.2-14-5C54.3,252.7,56.5,240.3,64.5,239.7z"/>
				<path class="st1" d="M44.7,270.7c1.9-4.3,5.2-6.4,5.2-6.4c0.3-0.7,0.6-1.5,0.9-2.3c4.2,2.8,8.9,4.6,14,5
					c-1.1,3.5-1.6,7.1-1.5,10.8c0,0.4,0,0.6,0,0.6c0,0.6,1.3,3.2,2.9,6.1c-4.5,1.7-9.1,3-13.8,4.1l-0.8-1.1l-4.8-5.9
					C44,278.4,43,274.5,44.7,270.7z"/>
				<path class="st2" d="M70.2,291.6c0,0-9.9,9.4-28.8,7.2c0,0,4.3-11.2,2.5-21.6c-1.5-8.1,6-13,6-13s4.8,4.8,14,6.2
					c0,0-1.1,6.1,2.5,11.6C68.7,285.5,70.2,291.6,70.2,291.6z"/>
				<path class="st21" d="M71.6,236.1c0,0,2.5,2.2,3.5,0.4c1-1.7-0.1-6-4.9-6.5c-4.5-0.5-6.3,3-8.2,6.1c-3.1,5.2-13.7,8.4-13.4,15.4
					c0.5,10.7,13.4,9.5,15.5,2.9c1.6-5.1-0.7-11.1,1.4-13C67.7,239.6,69.9,241.3,71.6,236.1z"/>
			</g>
		</g>
	</g>
</g>
<path class="st33" d="M140.5,84.3c0,0-2.6-5.4-0.3-7.4c2.3-2,3.4,0,6.9-2.4c5.4-3.8,13.4,4.3,3.3,8.7c0,0-4.3,1.5-6.8-1.5
	C143.5,81.7,143,83.8,140.5,84.3z"/>
</svg>
