<?xml version="1.0" encoding="utf-8"?>
<!-- Generator: Adobe Illustrator 22.1.0, SVG Export Plug-In . SVG Version: 6.00 Build 0)  -->
<svg version="1.1" id="レイヤー_1" xmlns="http://www.w3.org/2000/svg" xmlns:xlink="http://www.w3.org/1999/xlink" x="0px"
	 y="0px" viewBox="0 0 863 623" style="enable-background:new 0 0 863 623;" xml:space="preserve">
<style type="text/css">
	.st0{fill:#DDE6F5;}
	.st1{fill:#915151;}
	.st2{fill:#CEAB8B;}
	.st3{fill:#FDFDFD;}
	.st4{fill:#BC9371;}
	.st5{fill:#230E04;}
	.st6{fill:#B28767;}
	.st7{fill:#A7C4E4;}
	.st8{fill:#60C0FD;}
	.st9{fill:#45446C;}
	.st10{fill:#3B3B60;}
	.st11{fill:#FFAA81;}
	.st12{fill:#D1E7F4;}
	.st13{fill:#092140;}
	.st14{fill:#292951;}
	.st15{fill:#F7E2A6;}
	.st16{fill:#FFD22E;}
	.st17{fill:#F0A32F;}
	.st18{fill:#F2F2F2;}
	.st19{fill:#EF487C;}
	.st20{fill:#D83D75;}
	.st21{fill:#2C2B57;}
	.st22{fill:#363656;}
	.st23{fill:#8DB0DA;}
	.st24{fill:#FFFFFF;}
	.st25{fill:#F55D34;}
	.st26{fill:#F44444;}
	.st27{fill:#C1D9E5;}
</style>
<g>
	<ellipse class="st0" cx="431.4" cy="587.9" rx="431.6" ry="35"/>
	<path class="st1" d="M600.4,577.4H222.7c-6.7,0-12.1-5.4-12.1-12.1V63.6c0-6.7,5.4-12.1,12.1-12.1h377.7c6.7,0,12.1,5.4,12.1,12.1
		v501.7C612.6,572,607.2,577.4,600.4,577.4z"/>
	<path class="st2" d="M600.4,570.9H222.7c-6.7,0-12.1-5.4-12.1-12.1V57.1c0-6.7,5.4-12.1,12.1-12.1h377.7c6.7,0,12.1,5.4,12.1,12.1
		v501.7C612.6,565.5,607.2,570.9,600.4,570.9z"/>
	<rect x="239.5" y="68.8" class="st3" width="344.1" height="479.4"/>
	<g>
		<g>
			<g>
				<path class="st4" d="M796.3,571.2c-1.4-1.1-3.5-1.6-5-2.8c-0.7-0.6-2.3-1.5-2.4-2.1c-0.1-1-0.2-2.4,0.1-4.5
					c-3.2,0.4-5.9-0.1-8.8-1.3c0,0.9,0.1,3.4,0.1,4.3c-0.4,1.9-0.7,2.2-0.9,4.1c-0.3,2.2-0.6,5,1,6.8c1.2,1.3,3.2,1.5,5.1,1.4
					c2,0,7.5,0.3,8.2,0.2C795.7,577,802.2,576,796.3,571.2z"/>
				<path class="st5" d="M779.6,574c0.2,0.5,0.5,1,0.9,1.5c1.2,1.3,3.2,1.5,5.1,1.4c2,0,10.4,0.2,11,0.2c1.4-0.1,2.1-0.6,2.2-2.6
					C791.5,571.8,788.3,575.8,779.6,574z"/>
				<path class="st4" d="M763.9,369c0,0,5.5,65.8,7.8,83.3c2.3,17.5,8.6,109.2,8.6,109.2l4.3,2.5l4.5-0.6c0,0,4-73.2,5.6-87.3
					c1.6-14.1,6.2-89.2,4-112.5C797.3,349.5,774.5,321.8,763.9,369z"/>
				<path class="st6" d="M794.9,473.2c1.7-17.7,5.1-76.8,4.1-103.4l-24.2,6.6C775,388.5,791.2,451.1,794.9,473.2z"/>
				<path class="st4" d="M738.7,566.7c-0.8,0.2-1.6,0.4-2.3,0.5c-2.9,0.5-6.1-0.1-8.6-1.7c-0.1,0.4-0.1,0.6-0.1,0.6
					s-10.7,1-21.6,4.5c-10.9,3.5-11.5,7.3,3.3,6.5c26.8,0.6,28.6,0.7,28.7-6C738.2,570,738.4,568.4,738.7,566.7z"/>
				<path class="st5" d="M701.8,574.5c-1,0-1.8-0.4-2.3-0.9c-3.5,2.4-0.8,4.2,9.9,3.6c13.3,0.3,22.4,0.6,26.3-0.1
					c2.7-0.5,1.7-1.6,2.2-3.2C725.9,574.1,713.9,574.5,701.8,574.5z"/>
				<path class="st4" d="M736.4,372.4c0,0-3.2,67.9-3.1,85.6c0.2,17.7-5.3,106.1-5.3,106.1l5.5,2.6l5.4-1.4c0,0,10.4-64,13.8-77.8
					c3.3-13.8,15.5-88.1,17.5-102.2C772.2,371.2,752.9,326.8,736.4,372.4z"/>
				<path class="st7" d="M728.1,563.5c-0.2,1.2-0.3,2.2-0.4,2.5c2.3,3.7,7.1,2.7,10.9,1c0.1-0.4,0.4-2.1,0.4-2.5
					C735.3,565.3,731.3,565.9,728.1,563.5z"/>
				<path class="st7" d="M780.3,561.5c0,0.2,0.1,2.5,0.1,2.7c0,0,3.9,3,7.2,2.1c0.5-0.1,0.9-0.3,1.4-0.5c0.1-0.6,0-2.5,0.1-3.2
					C786.1,563.5,783,562.7,780.3,561.5z"/>
			</g>
			<path class="st8" d="M684.1,344.7c0-0.3,0.3-0.5,0.5-0.4c10.3,1.5,31.2,3.3,36.1-4.4c2.3-3.7,5.5-13.2,6.7-22.4
				c0.4-3.6,0.7-7.2,0.7-8.1c-0.2-9.5,6.3-24.1,12.5-24.9c5.5-0.6,8.7,10.1,6.2,22.5c-0.7,3.5-2.8,8.9-4.6,14.5c0,0.1,0,0.1,0,0.2
				c-1.8,9.6-5.1,19.9-9.3,26.2c-1,1.5-2.3,2.9-3.7,4.1c-3,2.5-6.8,3.8-10.7,4.3c-4,0.5-8.1,0.3-12-0.3c-3.8-0.6-13.9-2.5-17.6-3.7
				c-1.1-0.3-3.6-1-4.9-1.4c-0.2-0.1-0.4-0.3-0.3-0.5C683.6,348.5,683.9,346.6,684.1,344.7z"/>
			<path class="st9" d="M794.3,322.9c-5.5-39.7-2-43.5-10.4-48.1c-13.3-5.9-25.1-4.8-34.5-2c-4,1.6-6.6,3.7-8.5,5.4
				c-8.2,7.7-9.5,17.7-3.4,35.4c5.5,16.3-1,58.7-1,58.7c19.9,8.7,62.9,4.4,62.9,4.4S798.4,352.6,794.3,322.9z"/>
			<path class="st10" d="M776.5,367.7c2.4-9.9,4.7-19.7,6.1-29.8c1.5-10.7,2.2-21.5,2.2-32.3c0-7.3,0.7-14.9,0.1-22.3
				c3.4,5.7,5.7,16.4,9.3,39.5c4.6,29.7,5.1,53.8,5.1,53.8s-11.5,1.2-25.4,1.1C774.9,374.4,775.7,371.1,776.5,367.7z"/>
			<path class="st11" d="M743.7,237.2c0,0-0.1,3.6-1.3,8.9c-1.2,5.3-4.3,18.6,4.8,19.7c9.1,1.1,13.6,0.6,15.8-1.6
				c2.2-2.2,10.9-15.7,7.5-23.2C766.9,233.6,751.5,221.2,743.7,237.2z"/>
			<path class="st1" d="M743.1,231.1c1.3-1.1,3.3-1.9,5-2.5c1.2-0.4,2.4-0.7,3.6-0.9c4.9-1,10.6,0,14.6,2.5c1.2,0.8,2.4,1.9,2.6,3
				c0.8,0.6,1.5,1.2,2.1,1.9c3.1,3.5,3.9,8.6,3.2,13.2c-1.1,6.8-5.3,13.1-11.2,16.7c-0.4,0.2-0.9,0.5-1.3,0.6
				c-0.8-0.4-1.5-0.9-1.5-1.9c0-0.4,0.1-0.8,0.2-1.2c0.6-0.2,1.1-0.7,1.3-1.6c0.3-1.4,1.6-2.7,2-4.3c0.4-1.6,0.1-3.8-1.5-4.7
				c-0.7-0.4-1.5-0.5-2.2-0.2c-0.8,0.4-0.9,1.3-1.6,1.7c-0.5,0.3-1.4,0-1.6-0.5c-0.2-0.6,0.2-1.7,0.3-2.3c0.6-3.5,2.6-8.3-0.7-11.1
				c-1.6-1.4-4-2-6.1-2.3c-1.2-0.2-2.1,0.3-3.3,0.3c-1.5,0-4.3-0.2-5.1-1.7C740.9,234.4,741.9,232.1,743.1,231.1z"/>
			<path class="st11" d="M767,270.9c-0.6-1.6-0.8-3.3-1.3-4.9c-0.3-1.2-0.5-2.7-1.1-3.8c-0.8-1.5-2.5-1.6-4.1-2
				c-3-0.7-7.4-0.7-7.7,2.5c-0.3,2.5,2.4,6.5,0.6,8.8v5.8c4.2,1.8,9,2.7,13.5,2.5V270.9z"/>
			<path class="st9" d="M771.5,276.5c-0.3-0.6-1-1.1-1.5-1.6c-0.2-0.2-0.3-0.3-0.4-0.5c-0.9-0.9-1.6-2-2-3.2c0,0,0,0,0,0
				c-0.5-1-1.6-4.1-1.9-5.2c-4.9,3.4-10.9,2.1-12,1.6c0.2,1.1-1,9.9-1,9.9c4.6,1.8,9.6,2.7,14.5,2.5c1.2-0.1,2.4-0.2,3.4-0.8
				C771.4,278.6,772,277.5,771.5,276.5z"/>
			<path class="st1" d="M738.2,224.7c0.4-0.7,1.1-1.4,1.8-1.2c1.1,0.3,0.9,1.8,1.4,2.8c0.8,1.6,3.1,1.5,4.9,1.1c3-0.7,6-1.5,9-1.9
				c4.5-0.5,11.5,0.6,13.2,5.6c0.3,0.8,0.4,1.5,0.3,2.1c3.7,1.6,7,4.5,8.6,8.2c0.6,1.3,0.9,2.8,0.8,4.3c-0.2,2.1-1.3,4.1-2.4,5.9
				c-1.7,2.9-3.5,5.9-6,8.2c-0.2,0.2-0.5,0.5-0.8,0.5c-1,0.1-1.3-1.4-1.3-2.4c-0.1-2.7-1.9-5.1-3.9-6.8c-2-1.7-4.4-3.1-6.5-4.8
				c-2.1-1.8-5.4-6.1-6.3-9.8c-2.6,0.3-5.3,0.8-7.8,0.1c-2.4-0.7-4.4-2.5-5.4-4.8C737,229.6,737.1,226.9,738.2,224.7z"/>
			<path class="st11" d="M657.2,348.3c0.2-0.4,0.8-0.7,1.4-1c0,0,0-0.1,0-0.1c-0.1,0-0.2,0-0.3-0.1c-0.3-0.2-0.5-0.5-0.4-0.8
				c0.3-0.6,1.3-1,2.1-1.3c0.5-0.3,1-0.4,1.5-0.6l3.7-1c0.1,0,0.3-0.1,0.4-0.1l2-0.5c-0.2-0.5-3.2-1.5-1.3-3.9
				c3.9,3.1,11.7,2.2,14.7,4.3c0-0.1,0.9,1.1,3.4,1.3c1.9,0.2,0.9,4.4,0.1,5.8c-0.2,0.3-0.4,0.6-0.7,0.6c-3.9-0.2-5.9,1.8-6.9,2
				c-3,0.6-8.7,0.8-13.3,0.1c-1.3-0.1-2.6-0.3-3.9-0.7c-0.3-0.1-0.5-0.2-0.7-0.4c-0.2-0.2-0.3-0.6-0.1-0.9c0,0,0.1-0.1,0.1-0.1
				c-0.1,0-0.2,0-0.2,0c-0.3,0-0.6,0-0.8-0.2c-0.3-0.2-0.5-0.5-0.3-0.9c0.1-0.2,0.3-0.4,0.5-0.5c-0.3,0-0.5,0-0.8-0.1
				C657.3,348.9,657.1,348.6,657.2,348.3z"/>
			<path class="st8" d="M776.4,277.3c-3.6,6.2,1.5,19.7,9.9,26.2c0.7,0.6,3.8,3.3,6.6,6.2c0,0,0,0,0,0c7.3,7.5,13.5,17.1,15.2,21.8
				c5.5,15.5-21.9,37.2-21.9,37.2s-1.3,1.2-2.6,3.2c-1.7,2.6-1.7,6.1,0.4,4.8c2.9-1.9,6.7-4.3,10.2-6.7c7.5-5.2,35.8-22.3,29-43.9
				c-2.6-8.3-9.5-18.6-16.7-26.9c-3.7-5.6-7-11.3-9.6-14.4C787.8,273.8,779.6,271.8,776.4,277.3z"/>
			<path class="st11" d="M786.8,368.2c0,0-2.3,1.4-6,1.8c-3.7,0.4-7.3,1.6-8.1,1.9c0,0,0.2,1.1,0.9,1.4c0.7,0.3,3.8,0.1,3.8,0.1
				s0,0.3-0.2,0.8c-4.7,3.3-6.3,5.1-6.8,6.1c-0.6,0.5-1.1,0.9-1.3,1.3c-0.2,0.3-0.1,0.9,0.3,1c-0.3,0.3-0.5,0.7-0.6,1.1
				c0,0.2-0.1,0.3,0,0.5c0.2,0.4,1,0.3,1.4,0.3c-0.2,0.3-0.2,0.8,0.1,1c0.3,0.1,0.7,0.1,1.1,0c-0.3,0.3-0.1,0.7,0.6,0.7
				c0.9,0,2.3-0.4,2.9-0.7c0.3-0.2,1-0.3,1.6-0.6c1.4-0.4,2.7-0.9,3.7-1.5c2.2-1.3,5.9-3.6,6.5-5.8c0.6-2.3,3.3-4.6,3.3-4.6
				L786.8,368.2z"/>
		</g>
		<g>
			<polygon class="st12" points="639.6,231.7 657,200.4 674.5,231.6 			"/>
			<polygon class="st13" points="652.1,207.8 657,200.4 662,207.8 			"/>
			<path class="st14" d="M667.5,520.4l-20.6,0c-3.9,0-7.1,3.2-7.1,7.1l0.1,42.8c0,3.9,3.2,7.1,7.1,7.1l20.6,0c3.9,0,7.1-3.2,7.1-7.1
				l-0.1-42.8C674.6,523.6,671.4,520.4,667.5,520.4z"/>
			<polygon class="st15" points="651.2,231.7 651.4,529.4 639.8,529.4 639.6,231.7 			"/>
			<polygon class="st16" points="662.9,231.6 663,529.4 651.4,529.4 651.2,231.7 			"/>
			<polygon class="st17" points="674.5,231.6 674.7,529.4 663,529.4 662.9,231.6 			"/>
			
				<rect x="639.8" y="525" transform="matrix(1 -1.697411e-03 1.697411e-03 1 -0.8962 1.1163)" class="st18" width="34.9" height="7"/>
		</g>
	</g>
	<g>
		<path class="st11" d="M173.6,293.7c-0.6-0.9-2.2,0-2.2,0s0.1-0.4-0.2-0.7c-0.4-0.5-2.1-0.1-3.4,0.4c-0.9,0.3-3.3,2-4.9,3.1
			c-0.9,0.5-1.9,1.1-2.9,1.4c-1.9,0.7-2.1,0-1.7-0.9s0.6-2.5,0.5-3c-0.1-0.5-0.6-0.6-1.8,1c-1.1,1.7-3.4,4.7-4.6,6.3
			c-1.5,1.8-1.8,3.2-1.8,3.2l-2.8,2.3l3,3.2c0,0,1.5-1.3,3.7-2.6c2.4-1.5,3.7-3,6.1-4.1c2.4-1.1,8-3.5,9.6-4.4
			c0.8-0.5,1.7-1.6,2.3-2.6C173.4,295.1,173.9,294.2,173.6,293.7z"/>
		<path class="st19" d="M83.4,287.2c6.9-3.2,21.1,12.5,24.1,15.3c6,5.8,13.1,11.3,16.7,12.8c8.2,3.3,19.9-5.9,26.5-11.9
			c1.1,1.1,1.7,2.6,2.6,4.9c-0.8,1.2-2.4,2.6-3.2,3.8c-2,2.7-4.5,4.8-6.9,7.2c-2.5,2.5-5.4,4.9-8.5,6.6c-3.1,1.6-6.5,2.7-10,2.5
			c-1.7-0.1-3.3-0.4-4.9-1c-6.2-2.2-28-21.2-30.3-23.3C81,296.4,78.9,289.3,83.4,287.2z"/>
		<path class="st20" d="M114.2,315.4c0.8-2.3,0.3-5.1-0.7-7.5c-2-1.7-4-3.5-5.9-5.3c-3-2.8-17.2-18.5-24.1-15.3
			c-4.5,2.1-2.4,9.2,5.9,16.9c1.5,1.4,11.4,10,19.8,16.4C111.2,319.1,113.4,317.6,114.2,315.4z"/>
		<g>
			<g>
				<g>
					<g>
						<path class="st21" d="M137.1,569.1c-8.9-2.8-14.9-3.4-15.3-3.4c-2.9,2.2-7.4,1.9-10.4,0c-0.9,1.7-0.7,5.9-0.3,7.2
							c1.1,3.6,5.1,2.1,23.4,2.7C152.9,576,146.2,571.9,137.1,569.1z"/>
					</g>
				</g>
			</g>
			<g>
				<g>
					<g>
						<path class="st21" d="M97.7,569c-8.9-2.8-14.9-3.4-15.3-3.4c-2.9,2.2-7.4,1.9-10.4,0c-0.9,1.7-1.2,6.1-0.8,7.4
							c1.1,3.6,5.6,1.9,23.9,2.5C113.5,575.9,106.7,571.8,97.7,569z"/>
					</g>
				</g>
			</g>
			<path class="st11" d="M72.1,560.7l-0.2,5.2c0,0,6,3.1,14.3,4.1c0,0-2.8-3.2,0.9-3.7c0,0-10.2-2.7-10.7-6
				C75.9,557.1,72.1,560.7,72.1,560.7z"/>
			<path class="st11" d="M110.6,559.7l0.7,6.5c0,0,5.9,3.1,14.2,4c0,0-2.8-3.4,0.9-3.9c0,0-8.7-0.6-8.9-6
				C117.3,557.1,110.6,559.7,110.6,559.7z"/>
			<path class="st11" d="M63.9,455.3c0,0,6.9,103.2,8.2,107.2c1.8,2,6-0.1,6-0.1l2.6-121.3l-10.6-3.6L63.9,455.3z"/>
			<path class="st11" d="M117.5,561.8c0,0-6.7-82.5-4-120.5l-3.5-15.2l-15.5,10.5c0,0,2.1,69.8,16.7,125.7
				C111.1,562.3,115.3,564.1,117.5,561.8z"/>
		</g>
		<path class="st19" d="M63.1,458.1c0.1,0.8,0.2,1.8,0.8,2.4c0.8,0.8,2.1,0.9,3.2,0.9c16.6,0,33.3-0.1,49.9-0.1
			c-3.3-31.5-6.6-62.9-9.8-94.4c-0.4-3.6-0.8-7.3-2.1-10.7c-4-10.4-17.1-16.3-27.7-12.3c-8.6,3.3-10.6,12.6-12.2,20.7
			C59.2,395,59.4,427.5,63.1,458.1z"/>
		<path class="st20" d="M92.2,368.5c0.2-0.1,0.5-0.2,0.7-0.3c0.7-0.8,1.8-1.2,3.1-0.7c2.3,0.9,5.5-0.9,7.7-1.6
			c1-0.3,2.1-0.6,3.2-0.8c-0.3-3-0.8-6.1-1.9-8.9c-4-10.4-17.1-16.3-27.7-12.3c-8.6,3.3-10.6,12.6-12.2,20.7
			c-3.1,15.9-4.6,32.5-4.7,49C65.7,394.9,75,377.5,92.2,368.5z"/>
		<path class="st9" d="M104,346c0.8-9.4,0-15.5-0.3-22.5c1.9-3.2,7.1-12.5,5.2-17c-1.2-2.8-3.2-6.1-4.9-8.7
			c-4.6-11.4-3.1-12.9-10.5-15.3c-8.1-2.7-13.3-2.4-19.9,2.6c-7.9,6-9.4,18.7-6.2,24.5c2.7,4.9,3.5,10.6,4.1,16.1
			c0.5,3.7,0.9,7.4,0.8,11c-0.2,5.5-6.6,17.7-7.7,30.2c0,0.4,7.6,4.4,12.9-2.9c2,8.1,24.8,15.4,30.2,5.8
			C108.7,368.1,103.8,347.9,104,346z"/>
		<path class="st22" d="M104,346c0.8-9.4,0-15.5-0.3-22.5c1.9-3.2,7.1-12.5,5.2-17c-1-2.5-2.7-5.3-4.2-7.6c-0.3,2.2-0.9,4.4-1.7,6.4
			c-1.2,2.8-3.1,5.4-5.4,7.4c-2.3,7.4-6.1,14.3-10.6,20.6c-2.5,3.5-5,7-7.5,10.6c-2.8,3.9-5.9,7.9-10.3,10.1c-0.7,0.3-1.3,0.6-2,0.8
			c-1.1,3.9-2.1,8.1-2.5,12.3c0,0.4,7.6,4.4,12.9-2.9c2,8.1,24.8,15.4,30.2,5.8C108.7,368.1,103.8,347.9,104,346z"/>
		<g>
			<path class="st11" d="M93,276.5c1,0,2-0.1,2.9-0.5c1.1-0.5,2-1.5,2.7-2.5c2.5-3.5,3.8-7.9,4-12.3c0.3-4.4-0.4-8.7-1.3-13
				c-0.2-0.7-0.3-1.4-0.7-2c-0.5-0.8-1.3-1.4-2.1-1.9c-3.6-2-8.1-1.5-12.1-0.5c-2,0.5-4,1.2-5.6,2.5c-1.3,1-2.3,2.4-3.3,3.8
				c-1,1.4-1.9,2.9-2.4,4.6c-0.4,1.5-0.5,3-0.5,4.5c0,2.8,0.2,5.6,0.9,8.4c0.3,1.3,0.7,2.5,1.5,3.6c1.4,1.9,4.7,3,6.9,3.7
				C86.8,276,89.9,276.5,93,276.5z"/>
			<path class="st11" d="M81.5,283.3c-0.2,1.4,9.3,1.3,9.4,0.9c1-6.2,1.4-11,3.3-16.5c-2.5-0.6-8.9-2.2-13.5-1.1
				C80,266.8,81.7,281.4,81.5,283.3z"/>
			<path class="st11" d="M78.6,283.2c0.1,0.9,1.1,1.3,2,1.6c4,1.3,11,3.1,14.6,5.3c0.8-1.2,0.4-5.5-0.1-6.4
				c-0.3-0.6-4.9-1.7-6.8-2.1C85.6,280.9,78.5,282.3,78.6,283.2z"/>
			<path class="st1" d="M100.9,241.7c-4.5-3-9.7-5.2-15.1-5.5c-5.4-0.3-11.1,1.5-14.8,5.4c-3.6,3.7-5.1,9.4-3.4,14.2
				c-0.7-0.1-1.4-0.1-2-0.1c-1.8,0.1-3.6,0.4-5.1,1.3c-3.9,2.2-4.7,8.1-2.5,12.1c0,0,0,0.1,0,0.1c-1.7,0.7-3,2.2-3.5,4.8
				c-0.4,2.8,1,5.8,3.5,7c1.7,0.8,3.6,0.7,5.3-0.1c0.6,2.7,3.2,4.7,6,5.4c4.4,1.1,9.4-0.5,12.3-4c2.9-3.5,3.5-8.8,1.5-12.8
				c-0.9-1.8-2.2-3.4-3.2-5.2c-2.3-4.2-0.9-6.6,2.1-7.8c0,0,0,0,0.1,0c0.4,0.4,2.8,4.7,2.5,4.9c0.6-0.6,0.7-1.5,0.8-2.4
				c0.3-1.5,1.2-2.8,2.2-4c2.8-0.8,4.8-2,7.8-4.3C98.4,248.4,101.5,245.3,100.9,241.7z"/>
		</g>
		<path class="st11" d="M129.4,381.3c0,0,4.2,2.8,6.8,4.8c1.3,1,1.4,1.7,0.1,1.7c-1.4,0-3.6-0.9-4-0.7c-0.4,0.3-1,2.4-0.1,3.5
			c1,1.1,3.2,3.8,3.6,6.3c0.3,2.5-0.2,5.4-0.7,5.4c-0.5,0.1-1,0-1.8-2.6c-0.8-2.5-5.5-11.7-9.1-16.2c-3.6-4.5-5.1-5.4-5.1-5.4
			l4.1-2.8C123.2,375.4,127.3,380.4,129.4,381.3z"/>
		<path class="st19" d="M88.2,344.6c-0.2-0.2-1.1-1-1.8-3.3c0,0,0,0-0.1,0c-1.3-3.7-5.3-12.9-9.4-21.5h0c0,0,0,0,0,0
			c-0.4-0.8-0.7-1.5-1.1-2.3c-3.7-7.4-7.4-11.7-8.4-16.1c-1.8-8.4,2.6-10.7,5.7-10.9c1-0.3,4.9,1.2,5.5,1.8
			c6.6,7.9,6.6,10.6,11,20.7c0,0,0,0,0,0c3.9,9,7.9,18.6,9,22.7c3,4.3,5.2,10.2,7.9,14.6c3,5,18.4,26.3,20.1,28.1
			c-1,1.5-1.8,2.2-4,3.7c-1.6-1-10.7-11.3-12-12.5C101.1,361.1,94.5,354,88.2,344.6z"/>
		<path class="st19" d="M106.5,350.4c-2.6-4.4-4.8-10.3-7.9-14.6c-1.1-4.1-5.1-13.7-9-22.7l0,0c-1-2.2-1.7-4.1-2.4-5.7
			c-0.3,0.6-0.6,1.2-0.9,1.9c-0.4,1.5-0.9,3.1-1.5,4.5c-1.5,3.8-3.5,7.1-6.3,9.7c3.4,7.4,6.6,14.7,7.7,17.8c0,0,0,0,0.1,0
			c0.7,2.3,1.7,3,1.8,3.3c6.3,9.4,12.9,16.5,22.4,25.1c1.3,1.2,10.4,11.5,12,12.5c2.2-1.5,3-2.2,4-3.7
			C124.9,376.7,109.5,355.4,106.5,350.4z"/>
	</g>
	<g>
		<rect x="258.9" y="99.3" class="st8" width="305.4" height="53.7"/>
		<polygon class="st12" points="258.9,138.9 258.9,521.7 480.3,521.7 480.3,437.6 564.3,437.6 564.3,138.9 		"/>
		<polygon class="st23" points="480.3,521.7 564.3,437.6 480.3,437.6 		"/>
		<path class="st23" d="M328.4,200.9h-17.2c-5,0-9-4.1-9-9v-17.2c0-5,4.1-9,9-9h17.2c5,0,9,4.1,9,9v17.2
			C337.5,196.9,333.4,200.9,328.4,200.9z M311.3,169.3c-3,0-5.4,2.4-5.4,5.4v17.2c0,3,2.4,5.4,5.4,5.4h17.2c3,0,5.4-2.4,5.4-5.4
			v-17.2c0-3-2.4-5.4-5.4-5.4H311.3z"/>
		<path class="st23" d="M328.4,250.5h-17.2c-5,0-9-4.1-9-9v-17.2c0-5,4.1-9,9-9h17.2c5,0,9,4.1,9,9v17.2
			C337.5,246.4,333.4,250.5,328.4,250.5z M311.3,218.9c-3,0-5.4,2.4-5.4,5.4v17.2c0,3,2.4,5.4,5.4,5.4h17.2c3,0,5.4-2.4,5.4-5.4
			v-17.2c0-3-2.4-5.4-5.4-5.4H311.3z"/>
		<path class="st23" d="M328.4,300.1h-17.2c-5,0-9-4.1-9-9v-17.2c0-5,4.1-9,9-9h17.2c5,0,9,4.1,9,9v17.2
			C337.5,296,333.4,300.1,328.4,300.1z M311.3,268.5c-3,0-5.4,2.4-5.4,5.4v17.2c0,3,2.4,5.4,5.4,5.4h17.2c3,0,5.4-2.4,5.4-5.4v-17.2
			c0-3-2.4-5.4-5.4-5.4H311.3z"/>
		<path class="st23" d="M328.4,351.1h-17.2c-5,0-9-4.1-9-9v-17.2c0-5,4.1-9,9-9h17.2c5,0,9,4.1,9,9V342
			C337.5,347,333.4,351.1,328.4,351.1z M311.3,319.5c-3,0-5.4,2.4-5.4,5.4V342c0,3,2.4,5.4,5.4,5.4h17.2c3,0,5.4-2.4,5.4-5.4v-17.2
			c0-3-2.4-5.4-5.4-5.4H311.3z"/>
		<g>
			<path class="st24" d="M517.8,174.7H390.7c-0.9,0-1.6-0.7-1.6-1.6v-0.3c0-0.9,0.7-1.6,1.6-1.6h127.1c0.9,0,1.6,0.7,1.6,1.6v0.3
				C519.4,173.9,518.7,174.7,517.8,174.7z"/>
			<path class="st24" d="M517.8,185.1H368.1c-0.9,0-1.6-0.7-1.6-1.6v-0.3c0-0.9,0.7-1.6,1.6-1.6h149.7c0.9,0,1.6,0.7,1.6,1.6v0.3
				C519.4,184.3,518.7,185.1,517.8,185.1z"/>
			<path class="st24" d="M502.7,195.5H368.1c-0.9,0-1.6-0.7-1.6-1.6v-0.3c0-0.9,0.7-1.6,1.6-1.6h134.6c0.9,0,1.6,0.7,1.6,1.6v0.3
				C504.4,194.8,503.6,195.5,502.7,195.5z"/>
		</g>
		<g>
			<path class="st24" d="M517.8,224.2H390.7c-0.9,0-1.6-0.7-1.6-1.6v-0.3c0-0.9,0.7-1.6,1.6-1.6h127.1c0.9,0,1.6,0.7,1.6,1.6v0.3
				C519.4,223.5,518.7,224.2,517.8,224.2z"/>
			<path class="st24" d="M517.8,234.7H368.1c-0.9,0-1.6-0.7-1.6-1.6v-0.3c0-0.9,0.7-1.6,1.6-1.6h149.7c0.9,0,1.6,0.7,1.6,1.6v0.3
				C519.4,233.9,518.7,234.7,517.8,234.7z"/>
			<path class="st24" d="M502.7,245.1H368.1c-0.9,0-1.6-0.7-1.6-1.6v-0.3c0-0.9,0.7-1.6,1.6-1.6h134.6c0.9,0,1.6,0.7,1.6,1.6v0.3
				C504.4,244.4,503.6,245.1,502.7,245.1z"/>
		</g>
		<g>
			<path class="st24" d="M517.8,272.1H390.7c-0.9,0-1.6-0.7-1.6-1.6v-0.3c0-0.9,0.7-1.6,1.6-1.6h127.1c0.9,0,1.6,0.7,1.6,1.6v0.3
				C519.4,271.4,518.7,272.1,517.8,272.1z"/>
			<path class="st24" d="M517.8,282.6H368.1c-0.9,0-1.6-0.7-1.6-1.6v-0.3c0-0.9,0.7-1.6,1.6-1.6h149.7c0.9,0,1.6,0.7,1.6,1.6v0.3
				C519.4,281.8,518.7,282.6,517.8,282.6z"/>
			<path class="st24" d="M427.3,293h-59.2c-0.9,0-1.6-0.7-1.6-1.6V291c0-0.9,0.7-1.6,1.6-1.6h59.2c0.9,0,1.6,0.7,1.6,1.6v0.3
				C429,292.2,428.2,293,427.3,293z"/>
		</g>
		<g>
			<path class="st24" d="M517.8,324.8H390.7c-0.9,0-1.6-0.7-1.6-1.6v-0.3c0-0.9,0.7-1.6,1.6-1.6h127.1c0.9,0,1.6,0.7,1.6,1.6v0.3
				C519.4,324.1,518.7,324.8,517.8,324.8z"/>
			<path class="st24" d="M517.8,335.2H368.1c-0.9,0-1.6-0.7-1.6-1.6v-0.3c0-0.9,0.7-1.6,1.6-1.6h149.7c0.9,0,1.6,0.7,1.6,1.6v0.3
				C519.4,334.5,518.7,335.2,517.8,335.2z"/>
			<path class="st24" d="M368.1,345.6c-0.9,0-1.6-0.7-1.6-1.6v-0.3c0-0.9,0.7-1.6,1.6-1.6h119.5c0.9,0,1.6,0.7,1.6,1.6v0.3
				c0,0.9-0.7,1.6-1.6,1.6"/>
		</g>
		<g>
			<path class="st24" d="M517.6,380.1h-210c-1,0-1.8-0.8-1.8-1.8l0,0c0-1,0.8-1.8,1.8-1.8h210c1,0,1.8,0.8,1.8,1.8l0,0
				C519.4,379.3,518.6,380.1,517.6,380.1z"/>
			<path class="st24" d="M418.8,390.5H307.7c-1,0-1.8-0.8-1.8-1.8l0,0c0-1,0.8-1.8,1.8-1.8h111.1c1,0,1.8,0.8,1.8,1.8l0,0
				C420.6,389.7,419.8,390.5,418.8,390.5z"/>
			<path class="st24" d="M418.8,411.8H307.7c-1,0-1.8-0.8-1.8-1.8l0,0c0-1,0.8-1.8,1.8-1.8h111.1c1,0,1.8,0.8,1.8,1.8l0,0
				C420.6,411,419.8,411.8,418.8,411.8z"/>
			<path class="st24" d="M505.3,400.9H307.7c-1,0-1.8-0.8-1.8-1.8l0,0c0-1,0.8-1.8,1.8-1.8h197.6c1,0,1.8,0.8,1.8,1.8l0,0
				C507.1,400.1,506.3,400.9,505.3,400.9z"/>
		</g>
		<path class="st25" d="M323.9,190.8c-0.7,0-1.4-0.3-2-0.8l-9.9-8.6c-1.3-1.1-1.4-3.1-0.3-4.4c1.1-1.3,3.1-1.4,4.4-0.3l7.6,6.6
			l28.3-31.1c1.1-1.3,3.1-1.4,4.4-0.2c1.3,1.1,1.4,3.1,0.2,4.4l-30.3,33.3C325.6,190.5,324.7,190.8,323.9,190.8z"/>
		<path class="st25" d="M323.9,238.7c-0.7,0-1.4-0.3-2-0.8l-9.9-8.6c-1.3-1.1-1.4-3.1-0.3-4.4c1.1-1.3,3.1-1.4,4.4-0.3l7.6,6.6
			l28.3-31.1c1.1-1.3,3.1-1.4,4.4-0.2c1.3,1.1,1.4,3.1,0.2,4.4l-30.3,33.3C325.6,238.3,324.7,238.7,323.9,238.7z"/>
		<path class="st25" d="M323.9,288.3c-0.7,0-1.4-0.3-2-0.8l-9.9-8.6c-1.3-1.1-1.4-3.1-0.3-4.4c1.1-1.3,3.1-1.4,4.4-0.3l7.6,6.6
			l28.3-31.1c1.1-1.3,3.1-1.4,4.4-0.2c1.3,1.1,1.4,3.1,0.2,4.4l-30.3,33.3C325.6,288,324.7,288.3,323.9,288.3z"/>
		<path class="st25" d="M323.9,339.3c-0.7,0-1.4-0.3-2-0.8l-9.9-8.6c-1.3-1.1-1.4-3.1-0.3-4.4c1.1-1.3,3.1-1.4,4.4-0.3l7.6,6.6
			l28.3-31.1c1.1-1.3,3.1-1.4,4.4-0.2c1.3,1.1,1.4,3.1,0.2,4.4l-30.3,33.3C325.6,338.9,324.7,339.3,323.9,339.3z"/>
	</g>
	<g>
		<path class="st23" d="M294.6,63.1v7.5c0,5.6,4.5,10.1,10.1,10.1h213.7c5.6,0,10.1-4.5,10.1-10.1v-7.5H294.6z"/>
		<path class="st12" d="M518.4,40.2h-58.9c-11.7,0-21.1-9.5-21.1-21.1v-2.8c0-8.8-7.1-15.9-15.9-15.9h-21.9
			c-8.8,0-15.9,7.1-15.9,15.9V19c0,11.7-9.5,21.1-21.1,21.1h-58.9c-5.6,0-10.1,4.5-10.1,10.1v16.7c0,5.6,4.5,10.1,10.1,10.1h213.7
			c5.6,0,10.1-4.5,10.1-10.1V50.2C528.5,44.7,524,40.2,518.4,40.2z M411.6,30.2c-5,0-9.1-4.1-9.1-9.1c0-5,4.1-9.1,9.1-9.1
			s9.1,4.1,9.1,9.1C420.7,26.1,416.6,30.2,411.6,30.2z"/>
		<path class="st23" d="M411.6,14.9c4.5,0,8.3,3.3,9,7.6c0.1-0.5,0.1-1,0.1-1.5c0-5-4.1-9.1-9.1-9.1s-9.1,4.1-9.1,9.1
			c0,0.5,0.1,1,0.1,1.5C403.3,18.2,407.1,14.9,411.6,14.9z"/>
	</g>
	<g>
		<g>
			<polygon class="st26" points="357.1,597.1 177.7,597.1 174.2,494.4 360,494.4 			"/>
			<path class="st26" d="M174.2,494.4H360l-77.2-51.2c-9.6-6.3-22-6.3-31.5,0L174.2,494.4z"/>
			<g>
				<polygon class="st24" points="225.5,582.3 225.5,478.1 285.8,478.1 285.8,501 308.7,501 308.7,582.3 				"/>
				<polygon class="st27" points="285.8,478.1 308.7,501 285.8,501 				"/>
			</g>
			<path class="st27" d="M174.2,597.1V494.4l66.3,37.8c10.5,6,10.5,21.1,0,27.1L174.2,597.1z"/>
			<path class="st27" d="M360,597.1V494.4l-66.3,37.8c-10.5,6-10.5,21.1,0,27.1L360,597.1z"/>
			<path class="st7" d="M360,597.1H174.2l77.2-51.2c9.6-6.3,22-6.3,31.5,0L360,597.1z"/>
		</g>
		<g>
			<g>
				<g>
					<path class="st27" d="M296.6,509.8h-61.2c-0.4,0-0.6-0.3-0.6-0.6v-0.1c0-0.4,0.3-0.6,0.6-0.6h61.2c0.4,0,0.6,0.3,0.6,0.6v0.1
						C297.3,509.5,297,509.8,296.6,509.8z"/>
				</g>
				<g>
					<path class="st27" d="M296.6,513.8h-61.2c-0.4,0-0.6-0.3-0.6-0.6V513c0-0.4,0.3-0.6,0.6-0.6h61.2c0.4,0,0.6,0.3,0.6,0.6v0.1
						C297.3,513.5,297,513.8,296.6,513.8z"/>
				</g>
				<g>
					<path class="st27" d="M296.6,517.7h-61.2c-0.4,0-0.6-0.3-0.6-0.6V517c0-0.4,0.3-0.6,0.6-0.6h61.2c0.4,0,0.6,0.3,0.6,0.6v0.1
						C297.3,517.4,297,517.7,296.6,517.7z"/>
				</g>
			</g>
		</g>
		<g>
			<g>
				<g>
					<path class="st27" d="M296.6,521.5h-61.2c-0.4,0-0.6-0.3-0.6-0.6v-0.1c0-0.4,0.3-0.6,0.6-0.6h61.2c0.4,0,0.6,0.3,0.6,0.6v0.1
						C297.3,521.2,297,521.5,296.6,521.5z"/>
				</g>
				<g>
					<path class="st27" d="M296.6,525.4h-61.2c-0.4,0-0.6-0.3-0.6-0.6v-0.1c0-0.4,0.3-0.6,0.6-0.6h61.2c0.4,0,0.6,0.3,0.6,0.6v0.1
						C297.3,525.2,297,525.4,296.6,525.4z"/>
				</g>
			</g>
		</g>
	</g>
</g>
</svg>
