<?xml version="1.0" encoding="utf-8"?>
<!-- Generator: Adobe Illustrator 22.1.0, SVG Export Plug-In . SVG Version: 6.00 Build 0)  -->
<svg version="1.1" id="レイヤー_1" xmlns="http://www.w3.org/2000/svg" xmlns:xlink="http://www.w3.org/1999/xlink" x="0px"
	 y="0px" viewBox="0 0 512 512" style="enable-background:new 0 0 512 512;" xml:space="preserve">
<style type="text/css">
	.st0{fill:#FFFFFF;}
</style>
<path class="st0" d="M208,132h288c8.8,0,16-7.2,16-16V76c0-8.8-7.2-16-16-16H208c-8.8,0-16,7.2-16,16v40
	C192,124.8,199.2,132,208,132z M208,292h288c8.8,0,16-7.2,16-16v-40c0-8.8-7.2-16-16-16H208c-8.8,0-16,7.2-16,16v40
	C192,284.8,199.2,292,208,292z M208,452h288c8.8,0,16-7.2,16-16v-40c0-8.8-7.2-16-16-16H208c-8.8,0-16,7.2-16,16v40
	C192,444.8,199.2,452,208,452z M64,368c-26.5,0-48.6,21.5-48.6,48s22.1,48,48.6,48s48-21.5,48-48S90.5,368,64,368z M156.5,69
	l-72.2,72.2l-15.6,15.6c-4.7,4.7-12.9,4.7-17.6,0L3.5,109.4c-4.7-4.7-4.7-12.3,0-17l15.7-15.7c4.7-4.7,12.3-4.7,17,0l22.7,22.1
	l63.7-63.3c4.7-4.7,12.3-4.7,17,0l17,16.5C161.2,56.7,161.2,64.3,156.5,69z M156.5,228.6l-72.2,72.2l-15.7,15.7
	c-4.7,4.7-12.9,4.7-17.6,0L3.5,269c-4.7-4.7-4.7-12.3,0-17l15.7-15.7c4.7-4.7,12.3-4.7,17,0l22.7,22.1l63.7-63.7
	c4.7-4.7,12.3-4.7,17,0l17,17C161.2,216.3,161.2,223.9,156.5,228.6L156.5,228.6z"/>
</svg>
